<?xml version="1.0" encoding="UTF-8"?>
<svg version="1.1" xmlns="http://www.w3.org/2000/svg" width="2048" height="2048">
<path d="M0 0 C675.84 0 1351.68 0 2048 0 C2048 675.84 2048 1351.68 2048 2048 C1372.16 2048 696.32 2048 0 2048 C0 1372.16 0 696.32 0 0 Z " fill="#000100" transform="translate(0,0)"/>
<path d="M0 0 C0.68707031 0.56332031 1.37414063 1.12664062 2.08203125 1.70703125 C2.75878906 2.26003906 3.43554688 2.81304687 4.1328125 3.3828125 C21.02545741 18.7009973 25.81520888 44.93146285 27.08203125 66.70703125 C27.3269112 73.16368068 27.37778135 79.62134442 27.39453125 86.08203125 C27.39829773 86.88550995 27.40206421 87.68898865 27.40594482 88.51681519 C27.4318255 99.41021266 26.72597582 109.93211923 25.08203125 120.70703125 C24.93612549 121.66738281 24.79021973 122.62773438 24.63989258 123.6171875 C22.57889829 136.35217855 19.40009975 148.55632574 15.08203125 160.70703125 C14.55029297 162.21330078 14.55029297 162.21330078 14.0078125 163.75 C8.07396683 179.03682174 -0.19511884 193.99122367 -9.61572266 207.39135742 C-11.41360858 210.0069184 -12.81608132 212.23640837 -13.4921875 215.359375 C-12.67084905 218.71736416 -10.9282833 220.22652266 -8.48046875 222.64453125 C1.31947302 232.83675089 7.51060481 244.38244729 12.08203125 257.70703125 C12.64664062 259.25583984 12.64664062 259.25583984 13.22265625 260.8359375 C14.47198541 266.46359749 14.42184052 271.95902262 14.39453125 277.70703125 C14.3896167 278.91512451 14.38470215 280.12321777 14.37963867 281.36791992 C14.26412805 290.18049207 13.60314211 298.21861364 11.08203125 306.70703125 C10.74171875 307.85558594 10.40140625 309.00414062 10.05078125 310.1875 C3.15078739 331.19052186 -9.82272779 349.46393189 -25.87109375 364.5 C-26.7940625 365.37269531 -27.71703125 366.24539063 -28.66796875 367.14453125 C-29.5084375 367.90636719 -30.34890625 368.66820312 -31.21484375 369.453125 C-33.19807015 371.57395859 -33.19807015 371.57395859 -32.78125 374.23828125 C-32.01328003 376.43446688 -31.19490144 378.59998301 -30.35546875 380.76953125 C-27.03776998 391.63785482 -27.17958244 406.32290807 -31.91796875 416.70703125 C-32.40523437 417.81304688 -32.8925 418.9190625 -33.39453125 420.05859375 C-42.21122933 439.23782508 -57.27149878 451.97222947 -74.98046875 462.76953125 C-75.59728516 463.15681396 -76.21410156 463.54409668 -76.84960938 463.94311523 C-90.69689108 472.16023983 -106.56561291 476.25056583 -122.04296875 480.14453125 C-123.79192742 480.59338624 -125.54062692 481.04325232 -127.2890625 481.49414062 C-131.49582102 482.57670805 -135.70578057 483.64579616 -139.91796875 484.70703125 C-139.95660693 488.2327649 -139.95988852 491.32079199 -138.91796875 494.70703125 C-114.40023787 496.2253311 -84.85470663 488.83427237 -65.91796875 472.70703125 C-61.4551871 476.3816611 -59.53364361 481.13642827 -57.16796875 486.26953125 C-56.73186279 487.20337646 -56.29575684 488.13722168 -55.84643555 489.09936523 C-48.96933617 503.94100611 -42.91270994 518.93152197 -37.68652344 534.43212891 C-36.99494106 536.47919517 -36.29116379 538.52146422 -35.58203125 540.5625 C-30.52010735 555.34525229 -26.31122135 570.383423 -22.86328125 585.62109375 C-22.2176209 588.46282181 -21.52090544 591.28571932 -20.78515625 594.10546875 C-20.59840332 594.82500732 -20.41165039 595.5445459 -20.21923828 596.28588867 C-19.70188276 598.26480789 -19.1773631 600.24185023 -18.65234375 602.21875 C-17.96059605 605.50455156 -17.77415124 608.36327424 -17.91796875 611.70703125 C-22.19653207 611.0580949 -25.70259702 609.5795767 -29.6171875 607.7578125 C-30.25227737 607.46271286 -30.88736725 607.16761322 -31.54170227 606.86357117 C-32.88346981 606.23831767 -34.22395893 605.61031429 -35.56323242 604.97973633 C-37.5781738 604.03236461 -39.59822034 603.09664612 -41.61914062 602.16210938 C-48.24153988 599.07584858 -54.68370621 595.85405628 -60.87817383 591.95776367 C-62.84765636 590.7501444 -64.83746985 589.70863112 -66.91796875 588.70703125 C-70.90957651 586.7714629 -74.65670583 584.50110258 -78.44140625 582.19140625 C-80.59438354 580.90097822 -82.76601286 579.69943439 -84.98046875 578.51953125 C-99.36349911 570.57628974 -112.79692936 560.77592573 -126.32324219 551.48779297 C-128.70919932 549.85030978 -131.09809673 548.21724107 -133.48828125 546.5859375 C-145.77587824 538.19026857 -157.64363172 529.43167596 -169.21533203 520.07324219 C-170.65509793 518.91796115 -172.11099702 517.78282968 -173.5703125 516.65234375 C-180.23904086 511.48158266 -186.31724177 505.74558635 -192.44921875 499.9609375 C-195.51103118 497.07583073 -198.64201357 494.28985694 -201.828125 491.54296875 C-208.82770428 485.39380564 -215.68184045 479.05627127 -222.1967926 472.39535522 C-223.95763743 470.66811972 -225.78561268 469.06637932 -227.65991211 467.46337891 C-231.69965313 463.94749299 -235.48401891 460.2380779 -239.234375 456.41796875 C-240.58905838 455.05064815 -241.94388021 453.68346471 -243.29882812 452.31640625 C-245.39609434 450.19431014 -247.49169892 448.07062258 -249.5847168 445.94433594 C-251.63012787 443.86856759 -253.68184495 441.79919477 -255.734375 439.73046875 C-256.35123672 439.1001474 -256.96809845 438.46982605 -257.60365295 437.82040405 C-262.11560868 433.28279636 -266.74104175 428.76600692 -272.91796875 426.70703125 C-269.70069682 432.95009233 -266.06800331 438.3468704 -261.54296875 443.70703125 C-260.38072745 445.10742347 -259.21926144 446.50845952 -258.05859375 447.91015625 C-257.51009766 448.56951172 -256.96160156 449.22886719 -256.39648438 449.90820312 C-254.63711052 452.04873591 -252.95791192 454.24249518 -251.29296875 456.45703125 C-247.29117246 461.65148111 -242.79366886 466.39415802 -238.32666016 471.18505859 C-237.00412982 472.61394146 -235.70057439 474.06032079 -234.3984375 475.5078125 C-228.68299579 481.85537679 -222.76021717 487.96946406 -216.73046875 494.01953125 C-215.9820874 494.77250488 -215.23370605 495.52547852 -214.46264648 496.30126953 C-210.37173142 500.38089994 -206.19086955 504.28612013 -201.8137207 508.05639648 C-198.83451254 510.65039859 -195.97864075 513.37193791 -193.10546875 516.08203125 C-187.24775219 521.56165311 -181.204673 526.72168435 -174.91796875 531.70703125 C-174.12261719 532.34769531 -173.32726563 532.98835937 -172.5078125 533.6484375 C-169.9859246 535.67824971 -167.45228538 537.69276226 -164.91796875 539.70703125 C-163.87108073 540.54816087 -162.82420645 541.38930761 -161.77734375 542.23046875 C-149.26333887 552.23259138 -136.13938355 561.34088595 -122.76953125 570.15625 C-120.08227631 571.92862118 -117.41361447 573.72562508 -114.75390625 575.5390625 C-97.82195688 587.04381246 -80.22770721 597.23804383 -62.03320312 606.60449219 C-60.08984522 607.61744282 -58.16505914 608.65657532 -56.24609375 609.71484375 C-36.98156821 620.32944496 -17.13154577 628.82755556 4.08203125 634.70703125 C4.81260742 634.91328125 5.54318359 635.11953125 6.29589844 635.33203125 C19.5630329 638.91738701 33.46795325 637.9983773 47.08203125 637.70703125 C43.94350229 644.67881563 39.77336687 650.38163279 35.08203125 656.39453125 C34.37046875 657.31814453 33.65890625 658.24175781 32.92578125 659.19335938 C30.9870708 661.70536387 29.04146918 664.21116631 27.08203125 666.70703125 C26.03789062 668.09305542 26.03789062 668.09305542 24.97265625 669.50708008 C24.34875 670.23306396 23.72484375 670.95904785 23.08203125 671.70703125 C22.42203125 671.70703125 21.76203125 671.70703125 21.08203125 671.70703125 C20.72431641 672.55201172 20.72431641 672.55201172 20.359375 673.4140625 C16.06753816 681.11836899 7.71112022 687.01941852 0.91015625 692.43359375 C-0.98328406 693.95566869 -2.84826025 695.51380947 -4.68359375 697.10546875 C-12.32351419 703.72255831 -20.43563565 709.14235824 -28.9921875 714.4921875 C-30.63829242 715.53060257 -32.2647022 716.60012817 -33.88671875 717.67578125 C-41.54343932 722.74951175 -49.6516157 726.74196708 -57.91796875 730.70703125 C-58.54751465 731.01141113 -59.17706055 731.31579102 -59.82568359 731.62939453 C-75.03907235 738.96563757 -90.41438482 745.11315366 -106.58691406 749.99853516 C-110.35227485 751.14297137 -114.10258558 752.33495835 -117.85546875 753.51953125 C-121.5228559 754.67670559 -125.18062709 755.79539789 -128.91796875 756.70703125 C-128.78745117 757.23844727 -128.65693359 757.76986328 -128.52246094 758.31738281 C-116.8415579 806.08429805 -110.22651045 854.46561429 -113.91796875 903.70703125 C-118.03684574 903.07934763 -121.30336283 901.71124474 -125.03125 899.87109375 C-126.19720703 899.30132813 -127.36316406 898.7315625 -128.56445312 898.14453125 C-129.78669444 897.54084237 -131.00869817 896.93667226 -132.23046875 896.33203125 C-145.90191455 888.59019556 -145.90191455 888.59019556 -160.91796875 886.70703125 C-163.12548062 888.52640917 -164.65402224 890.03131378 -166.41796875 892.20703125 C-166.89371338 892.7594751 -167.36945801 893.31191895 -167.85961914 893.88110352 C-169.22946961 895.47619864 -170.57450771 897.08971691 -171.91796875 898.70703125 C-173.05960423 900.02318425 -174.20477752 901.33628816 -175.35546875 902.64453125 C-175.89042969 903.26070312 -176.42539063 903.876875 -176.9765625 904.51171875 C-179.58773403 907.46439159 -182.24812528 910.36990953 -184.91796875 913.26953125 C-185.44148926 913.83833008 -185.96500977 914.40712891 -186.50439453 914.99316406 C-189.17475987 917.87799969 -191.88312472 920.6821629 -194.73046875 923.39453125 C-199.20031668 927.76553733 -203.11965102 933.1103958 -205.91796875 938.70703125 C-199.34540274 936.29391523 -194.39516867 932.95974674 -189.08203125 928.4140625 C-186.91796875 926.70703125 -186.91796875 926.70703125 -183.91796875 925.70703125 C-183.91796875 925.04703125 -183.91796875 924.38703125 -183.91796875 923.70703125 C-182.46240234 922.27050781 -182.46240234 922.27050781 -180.44140625 920.59765625 C-175.92287155 916.75421334 -171.72406904 912.66166494 -167.54296875 908.45703125 C-166.83269531 907.750625 -166.12242188 907.04421875 -165.390625 906.31640625 C-164.71128906 905.63578125 -164.03195312 904.95515625 -163.33203125 904.25390625 C-162.72311035 903.64385742 -162.11418945 903.03380859 -161.48681641 902.40527344 C-159.72394301 900.58624561 -159.72394301 900.58624561 -157.91796875 897.70703125 C-153.43512051 898.25480141 -150.14047581 899.39331156 -146.1796875 901.54296875 C-145.11169922 902.11273437 -144.04371094 902.6825 -142.94335938 903.26953125 C-141.29110352 904.16671875 -141.29110352 904.16671875 -139.60546875 905.08203125 C-127.04741395 912.3235926 -127.04741395 912.3235926 -113.04296875 915.14453125 C-112.32367187 915.16386719 -111.604375 915.18320313 -110.86328125 915.203125 C-108.77120827 914.84828775 -108.77120827 914.84828775 -107.26171875 913.0234375 C-105.75384325 910.42410561 -105.00695249 908.125734 -104.29296875 905.20703125 C-104.05320312 904.26859375 -103.8134375 903.33015625 -103.56640625 902.36328125 C-101.57975221 891.16142473 -101.71912584 879.79503998 -101.73046875 868.45703125 C-101.73007599 867.62497162 -101.72968323 866.79291199 -101.72927856 865.93563843 C-101.07696199 843.50760282 -101.07696199 843.50760282 -104.91796875 821.70703125 C-105.19069605 819.52224841 -105.43578815 817.33399429 -105.66796875 815.14453125 C-106.56200844 807.50348415 -107.87532217 799.95441666 -109.29296875 792.39453125 C-109.48987305 791.31034912 -109.68677734 790.22616699 -109.88964844 789.10913086 C-111.08704548 782.86562854 -112.69588399 777.06932732 -115.03759766 771.15551758 C-115.92605501 768.68454177 -116.46734857 766.29045234 -116.91796875 763.70703125 C-115.91056641 763.48660156 -115.91056641 763.48660156 -114.8828125 763.26171875 C-111.97286852 762.60838939 -109.07006105 761.92869848 -106.16894531 761.23730469 C-104.60238325 760.86826208 -103.03384519 760.50754933 -101.46386719 760.15332031 C-66.51227194 752.20799687 -32.95295135 735.28693733 -5.6328125 712 C-3.91796875 710.70703125 -3.91796875 710.70703125 -1.91796875 710.70703125 C0.11178808 725.46905377 1.81458842 740.23521003 3.21661377 755.06958008 C3.74180713 760.61760292 4.28225908 766.16414974 4.8203125 771.7109375 C4.9271637 772.81563385 5.03401489 773.9203302 5.144104 775.0585022 C7.95050762 806.12971159 7.95050762 806.12971159 12.32861328 837.00097656 C13.03414185 841.22541216 13.55185692 845.45923206 14.0456543 849.71295166 C15.6639345 863.57513071 17.99479318 877.24682822 20.58203125 890.95703125 C20.79623718 892.103461 21.01044312 893.24989075 21.23114014 894.43106079 C26.0669098 920.28464892 31.45094907 946.01611713 37.08203125 971.70703125 C37.27559204 972.59277832 37.46915283 973.47852539 37.6685791 974.39111328 C41.24972561 990.76606296 45.01516821 1007.03919576 49.65380859 1023.15405273 C51.88331682 1030.89996855 53.814006 1038.68023933 55.6328125 1046.53125 C56.79707938 1051.54437557 58.01754093 1056.54238747 59.25 1061.5390625 C66.73204482 1091.91002026 66.73204482 1091.91002026 68.85375977 1103.42211914 C69.58456008 1107.37734494 70.47126891 1111.24219991 71.49609375 1115.1328125 C73.52130744 1123.11501709 74.79062215 1131.20565884 76.08203125 1139.33203125 C76.21209564 1140.14317383 76.34216003 1140.95431641 76.47616577 1141.79003906 C78.1201289 1152.07398802 79.66990192 1162.36340161 80.89453125 1172.70703125 C81.00603516 1173.62693848 81.11753906 1174.5468457 81.23242188 1175.49462891 C83.1782561 1193.10318927 83.29261174 1210.88625354 83.26953125 1228.58203125 C83.26826233 1229.59293823 83.26699341 1230.60384521 83.26568604 1231.64538574 C83.1383256 1284.96625375 71.57072572 1337.26709728 49.08203125 1385.70703125 C48.39173828 1387.20073242 48.39173828 1387.20073242 47.6875 1388.72460938 C38.24998895 1409.03144383 27.79383215 1428.07763044 15.37939453 1446.70947266 C14.30476522 1448.36408633 13.30581499 1450.06757067 12.328125 1451.78125 C11.91691406 1452.41675781 11.50570313 1453.05226563 11.08203125 1453.70703125 C10.42203125 1453.70703125 9.76203125 1453.70703125 9.08203125 1453.70703125 C9.00891227 1449.17365463 9.0563643 1444.81685664 9.57421875 1440.3125 C12.08907386 1416.10897903 11.51012481 1389.67138373 3.08203125 1366.70703125 C2.75203125 1365.71703125 2.42203125 1364.72703125 2.08203125 1363.70703125 C-1.634201 1365.20178244 -3.37379186 1367.24583604 -5.79296875 1370.39453125 C-14.94067522 1381.83656539 -25.30122734 1392.18810817 -35.60546875 1402.58203125 C-36.45979492 1403.44940918 -37.31412109 1404.31678711 -38.19433594 1405.21044922 C-44.12071923 1411.14478281 -50.36119325 1416.48469853 -56.91796875 1421.70703125 C-58.22265596 1422.78069781 -59.52504127 1423.85717298 -60.82421875 1424.9375 C-76.9282794 1438.22340517 -93.95095338 1450.24005966 -111.05029297 1462.19824219 C-113.19514505 1463.69910158 -115.33813523 1465.20257943 -117.48046875 1466.70703125 C-118.52448853 1467.43780884 -118.52448853 1467.43780884 -119.58959961 1468.18334961 C-123.23002178 1470.7480099 -126.8095135 1473.36897434 -130.33203125 1476.09375 C-131.04931396 1476.64611328 -131.76659668 1477.19847656 -132.50561523 1477.76757812 C-133.867215 1478.82253695 -135.22143372 1479.8871192 -136.56665039 1480.96289062 C-140.31971478 1483.8705196 -143.02378784 1485.3837597 -147.91796875 1485.70703125 C-152.97238069 1477.39788435 -157.91220898 1469.03050829 -162.73046875 1460.58203125 C-163.23030273 1459.70659668 -163.73013672 1458.83116211 -164.24511719 1457.92919922 C-166.91756697 1453.24094419 -169.57271425 1448.54353906 -172.2109375 1443.8359375 C-172.74807373 1442.88283691 -173.28520996 1441.92973633 -173.83862305 1440.94775391 C-174.86776074 1439.12111007 -175.89163273 1437.29148638 -176.90942383 1435.45849609 C-180.12396762 1429.41553271 -180.12396762 1429.41553271 -184.91796875 1424.70703125 C-188.00775542 1424.73094601 -189.41931296 1425.28306863 -191.76953125 1427.28125 C-192.35476563 1427.97863281 -192.94 1428.67601562 -193.54296875 1429.39453125 C-194.22617188 1430.2040625 -194.909375 1431.01359375 -195.61328125 1431.84765625 C-199.67106351 1436.88205729 -203.66861255 1441.96064496 -207.63671875 1447.06591797 C-209.37744145 1449.29555554 -211.14561642 1451.50248644 -212.91796875 1453.70703125 C-217.9691584 1459.99997169 -222.93984744 1466.3562662 -227.91796875 1472.70703125 C-226.56832031 1473.13628906 -226.56832031 1473.13628906 -225.19140625 1473.57421875 C-222.49121205 1474.5086535 -220.07210188 1475.52385894 -217.54296875 1476.83203125 C-216.85460938 1477.18523437 -216.16625 1477.5384375 -215.45703125 1477.90234375 C-214.94914062 1478.16789062 -214.44125 1478.4334375 -213.91796875 1478.70703125 C-214.48328567 1485.32046484 -216.18051197 1491.07870351 -218.35546875 1497.33203125 C-219.09012089 1499.49079112 -219.82448286 1501.64964976 -220.55859375 1503.80859375 C-220.94595703 1504.93942383 -221.33332031 1506.07025391 -221.73242188 1507.23535156 C-223.71804044 1513.04991004 -225.66237696 1518.87814795 -227.60546875 1524.70703125 C-228.01506836 1525.93510498 -228.42466797 1527.16317871 -228.84667969 1528.4284668 C-232.18904725 1538.46427438 -235.48874108 1548.51396412 -238.76651001 1558.57104492 C-239.31215049 1560.24478434 -239.85847968 1561.91829945 -240.40560913 1563.59155273 C-244.75915146 1576.91310368 -248.83598167 1590.29478799 -252.91796875 1603.70703125 C-678.28796875 1603.70703125 -1103.65796875 1603.70703125 -1541.91796875 1603.70703125 C-1545.2877048 1593.59782311 -1545.2877048 1593.59782311 -1546.1640625 1588.88671875 C-1546.35935547 1587.86505615 -1546.55464844 1586.84339355 -1546.75585938 1585.79077148 C-1546.95373047 1584.73188721 -1547.15160156 1583.67300293 -1547.35546875 1582.58203125 C-1548.91104139 1574.51979722 -1550.6428662 1566.6409455 -1552.8828125 1558.7421875 C-1554.64184773 1552.22361216 -1555.82446362 1545.54609093 -1557.08007812 1538.91577148 C-1558.73149826 1530.55034745 -1560.90558377 1526.32573025 -1567.41796875 1520.64453125 C-1596.58844191 1494.50394885 -1614.6812265 1455.44925066 -1617.06445312 1416.30078125 C-1617.92675797 1398.65887223 -1616.25454431 1375.96093341 -1604.29296875 1361.89453125 C-1602.62890625 1360.1875 -1602.62890625 1360.1875 -1600.91796875 1358.70703125 C-1600.31210938 1358.14628906 -1599.70625 1357.58554688 -1599.08203125 1357.0078125 C-1596.25266731 1355.30712984 -1594.15932461 1355.48602971 -1590.91796875 1355.70703125 C-1591.51665467 1352.310209 -1592.12298898 1348.91479092 -1592.73046875 1345.51953125 C-1592.89611328 1344.57916016 -1593.06175781 1343.63878906 -1593.23242188 1342.66992188 C-1594.3566382 1336.41249137 -1595.69290335 1330.23250347 -1597.14819336 1324.04418945 C-1598.46205341 1318.34829567 -1599.6213815 1312.62107454 -1600.79296875 1306.89453125 C-1601.31627562 1304.35153562 -1601.83971532 1301.80856731 -1602.36328125 1299.265625 C-1602.62270508 1298.00347168 -1602.88212891 1296.74131836 -1603.14941406 1295.44091797 C-1604.31500347 1289.77810845 -1605.49010449 1284.11729856 -1606.66796875 1278.45703125 C-1606.86632324 1277.50078857 -1607.06467773 1276.5445459 -1607.26904297 1275.55932617 C-1608.44024757 1269.93123223 -1609.65643665 1264.31551642 -1610.91796875 1258.70703125 C-1611.15950684 1257.6284082 -1611.40104492 1256.54978516 -1611.64990234 1255.43847656 C-1616.04157617 1235.8342109 -1616.04157617 1235.8342109 -1620.60546875 1216.26953125 C-1620.80269531 1215.43800537 -1620.99992187 1214.60647949 -1621.203125 1213.74975586 C-1622.12551733 1209.89342851 -1623.08268064 1206.05156521 -1624.11328125 1202.22265625 C-1624.30188721 1201.51036865 -1624.49049316 1200.79808105 -1624.68481445 1200.06420898 C-1625.18541615 1198.18835252 -1625.70133367 1196.3166008 -1626.21875 1194.4453125 C-1626.44949219 1193.21167969 -1626.68023438 1191.97804688 -1626.91796875 1190.70703125 C-1627.10351318 1189.98563965 -1627.28905762 1189.26424805 -1627.48022461 1188.52099609 C-1628.02056669 1184.92091657 -1627.9183873 1182.21590201 -1625.8531189 1179.10098267 C-1622.78444334 1175.28914936 -1619.30968705 1171.89399233 -1615.7668457 1168.52685547 C-1613.85849664 1166.70991411 -1611.99339335 1164.8559499 -1610.13085938 1162.9921875 C-1608.92550921 1161.8114167 -1607.71789797 1160.6329487 -1606.5078125 1159.45703125 C-1605.95334946 1158.90813232 -1605.39888641 1158.3592334 -1604.82762146 1157.79370117 C-1599.11984201 1152.42307598 -1593.19034837 1151.55471325 -1585.5 1150.890625 C-1584.8090625 1150.82946503 -1584.118125 1150.76830505 -1583.40625 1150.70529175 C-1581.18156046 1150.51085269 -1578.95616539 1150.32705172 -1576.73046875 1150.14453125 C-1575.19033896 1150.0140263 -1573.65021856 1149.88341046 -1572.11010742 1149.75268555 C-1556.04298484 1148.40788839 -1540.04649951 1147.48709674 -1523.91796875 1147.70703125 C-1528.50410986 1135.75608707 -1533.50497743 1124.07249694 -1538.9284668 1112.4777832 C-1543.04528624 1103.65675457 -1547.01222898 1094.77665593 -1550.94241333 1085.87124634 C-1556.05298153 1074.29325146 -1561.23168424 1062.77180022 -1566.75927734 1051.38525391 C-1570.84124153 1042.94838135 -1574.73340163 1034.42918429 -1578.60546875 1025.89453125 C-1578.93064484 1025.1780542 -1579.25582092 1024.46157715 -1579.59085083 1023.72338867 C-1583.55442984 1014.98416334 -1587.47926853 1006.22924844 -1591.32910156 997.43920898 C-1593.84530958 991.74400408 -1596.65421005 986.22273103 -1599.5703125 980.72265625 C-1600.97055172 977.58936732 -1601.73196672 975.13411857 -1601.91796875 971.70703125 C-1600.50523567 968.32001847 -1598.18055127 965.58189826 -1595.91796875 962.70703125 C-1595.35980469 961.98386719 -1594.80164062 961.26070312 -1594.2265625 960.515625 C-1584.88146974 949.23288882 -1570.56760494 937.74448187 -1555.91796875 934.70703125 C-1552.50473461 934.43910198 -1549.09063066 934.43003604 -1545.66796875 934.39453125 C-1544.75144531 934.36552734 -1543.83492187 934.33652344 -1542.890625 934.30664062 C-1535.94858617 934.24227079 -1530.64347537 935.52116167 -1525.28979492 940.09936523 C-1520.07198173 945.26331953 -1517.26276613 952.58918164 -1514.15185547 959.12890625 C-1512.81352697 961.92525548 -1511.4473983 964.70695909 -1510.078125 967.48828125 C-1502.99396663 981.94846309 -1496.36338274 996.57477965 -1489.86132812 1011.30322266 C-1482.43895212 1028.10883645 -1474.67461556 1044.74831999 -1466.8359375 1061.36328125 C-1465.77679683 1063.60853355 -1464.71769315 1065.85380326 -1463.65869141 1068.09912109 C-1462.96142114 1069.57738579 -1462.26399497 1071.05557696 -1461.56640625 1072.53369141 C-1456.53664186 1083.19554406 -1451.62597358 1093.89862009 -1446.91796875 1104.70703125 C-1430.20835186 1104.9221066 -1413.59703821 1104.28578959 -1396.91096115 1103.43575287 C-1391.2379358 1103.14948795 -1385.56408437 1102.87967987 -1379.89036751 1102.6075325 C-1378.44999538 1102.53842724 -1377.00963053 1102.46917005 -1375.56927299 1102.3997612 C-1361.50079722 1101.7221912 -1347.43021531 1101.11535975 -1333.35546875 1100.58203125 C-1332.28528503 1100.54145599 -1331.21510132 1100.50088074 -1330.11248779 1100.45907593 C-1312.36664977 1099.79613063 -1294.61865163 1099.34764356 -1276.86303711 1099.04833984 C-1267.83610325 1098.89106911 -1258.82993694 1098.63422595 -1249.8125 1098.18359375 C-1239.54931308 1097.67644769 -1229.31663409 1097.58930769 -1219.04296875 1097.64453125 C-1217.36067847 1097.64957292 -1215.67838666 1097.65413096 -1213.99609375 1097.65820312 C-1209.97001276 1097.66895966 -1205.94400897 1097.68606565 -1201.91796875 1097.70703125 C-1199.27818035 1104.55751931 -1197.21023193 1111.4528173 -1195.27368164 1118.53588867 C-1194.72650856 1120.53399263 -1194.17122732 1122.52972511 -1193.61523438 1124.52539062 C-1193.26783203 1125.78802734 -1192.92042969 1127.05066406 -1192.5625 1128.3515625 C-1192.24643799 1129.49987549 -1191.93037598 1130.64818848 -1191.60473633 1131.83129883 C-1190.91796875 1134.70703125 -1190.91796875 1134.70703125 -1190.91796875 1137.70703125 C-1189.92796875 1137.37703125 -1188.93796875 1137.04703125 -1187.91796875 1136.70703125 C-1185.78723431 1136.61511183 -1183.65366587 1136.58509611 -1181.52095032 1136.58677673 C-1180.54317817 1136.5854951 -1180.54317817 1136.5854951 -1179.54565305 1136.58418757 C-1177.35763738 1136.58253817 -1175.16969808 1136.5880453 -1172.98168945 1136.59350586 C-1171.41476442 1136.59378787 -1169.84783926 1136.59362972 -1168.28091431 1136.59306335 C-1164.02295176 1136.59277594 -1159.76501726 1136.59866373 -1155.50706124 1136.60563731 C-1151.05876065 1136.61188005 -1146.61045945 1136.61247538 -1142.16215515 1136.61366272 C-1133.73679022 1136.61677331 -1125.31143824 1136.62498305 -1116.88607901 1136.63501221 C-1107.29489986 1136.64618177 -1097.7037201 1136.65168593 -1088.11253607 1136.65670764 C-1068.3810064 1136.66716588 -1048.64948839 1136.68476008 -1028.91796875 1136.70703125 C-1027.9546014 1138.60073075 -1026.99506096 1140.49637737 -1026.03710938 1142.39282227 C-1025.50234985 1143.44824722 -1024.96759033 1144.50367218 -1024.41662598 1145.59107971 C-1022.37316361 1149.83976954 -1020.84251962 1154.15754863 -1019.41796875 1158.64453125 C-1019.12664063 1159.54075195 -1018.8353125 1160.43697266 -1018.53515625 1161.36035156 C-1015.70237905 1170.17583104 -1013.15543561 1179.06753225 -1010.68164062 1187.98925781 C-1009.92248079 1190.69097371 -1009.13490464 1193.38286961 -1008.33984375 1196.07421875 C-1003.52451729 1212.55520439 -999.67931886 1229.23400057 -995.85566711 1245.96702576 C-995.65579697 1246.84157913 -995.45592682 1247.71613251 -995.25 1248.6171875 C-995.05137863 1249.48694717 -994.85275726 1250.35670685 -994.64811707 1251.25282288 C-993.45071567 1256.46961968 -992.19649552 1261.6678069 -990.87890625 1266.85546875 C-988.85904163 1274.84249532 -987.033266 1282.86686566 -985.25317383 1290.91040039 C-984.72376322 1293.2997954 -984.18918748 1295.68799833 -983.65429688 1298.07617188 C-983.31089057 1299.62102546 -982.9677805 1301.16594494 -982.625 1302.7109375 C-982.46771927 1303.41207169 -982.31043854 1304.11320587 -982.14839172 1304.83558655 C-981.20613412 1309.11586479 -980.48709217 1313.36565468 -979.91796875 1317.70703125 C-978.62553407 1316.58291365 -977.334048 1315.45770533 -976.04296875 1314.33203125 C-975.32367187 1313.70554687 -974.604375 1313.0790625 -973.86328125 1312.43359375 C-972.51030895 1311.23276291 -971.19713425 1309.98619675 -969.91796875 1308.70703125 C-969.82098391 1305.54731021 -969.82098391 1305.54731021 -970.16796875 1301.95703125 C-970.255625 1300.7453125 -970.34328125 1299.53359375 -970.43359375 1298.28515625 C-970.9017037 1294.82718278 -971.81429339 1292.0059733 -972.91796875 1288.70703125 C-973.63358223 1285.24355074 -974.20511354 1281.7566561 -974.79296875 1278.26953125 C-976.13671513 1270.59313641 -977.74057857 1263.16140737 -979.85546875 1255.66015625 C-981.2005645 1250.8006186 -982.26272432 1245.87819605 -983.35546875 1240.95703125 C-985.6184631 1230.80093873 -988.19319452 1220.74811416 -990.91796875 1210.70703125 C-984.61184641 1211.60217997 -978.66195791 1213.03369185 -972.60546875 1215.01171875 C-963.96448206 1217.77192203 -955.23409727 1220.02044656 -946.41796875 1222.14453125 C-945.23074219 1222.43242523 -945.23074219 1222.43242523 -944.01953125 1222.72613525 C-927.75394449 1226.65571328 -911.41585732 1229.91573985 -894.91796875 1232.70703125 C-893.97743652 1232.86896973 -893.0369043 1233.0309082 -892.06787109 1233.19775391 C-863.31858287 1238.05379482 -834.01756934 1239.20583916 -804.91796875 1239.70703125 C-804.78519531 1238.80339844 -804.65242187 1237.89976563 -804.515625 1236.96875 C-804.33902344 1235.78925781 -804.16242187 1234.60976562 -803.98046875 1233.39453125 C-803.80644531 1232.22277344 -803.63242187 1231.05101562 -803.453125 1229.84375 C-802.91796875 1226.70703125 -802.91796875 1226.70703125 -801.91796875 1223.70703125 C-802.91199707 1223.63709961 -803.90602539 1223.56716797 -804.93017578 1223.49511719 C-825.43399216 1222.03634642 -845.77814085 1220.24394475 -866.125 1217.25732422 C-869.4268329 1216.77828641 -872.73028766 1216.31973983 -876.03634644 1215.87135315 C-905.38574128 1211.883119 -934.14666753 1206.38667464 -962.51269531 1197.74072266 C-966.07636804 1196.65894818 -969.64855494 1195.60926219 -973.22265625 1194.5625 C-975.57981424 1193.86197851 -977.93659919 1193.16020027 -980.29296875 1192.45703125 C-981.37513672 1192.14000244 -982.45730469 1191.82297363 -983.57226562 1191.49633789 C-994.48632395 1188.17591871 -994.48632395 1188.17591871 -997.91796875 1184.70703125 C-999.6643124 1180.65105791 -1000.75127331 1176.47576772 -1001.85546875 1172.20703125 C-1002.53548953 1169.76072273 -1003.21911885 1167.3154146 -1003.90625 1164.87109375 C-1004.24221191 1163.65969727 -1004.57817383 1162.44830078 -1004.92431641 1161.20019531 C-1009.94612047 1140.96350251 -1009.94612047 1140.96350251 -1022.91796875 1125.70703125 C-1028.22079192 1124.16584158 -1032.88179406 1123.44685 -1038.43554688 1123.38818359 C-1039.13897217 1123.37813797 -1039.84239746 1123.36809235 -1040.56713867 1123.35774231 C-1042.86115805 1123.32718274 -1045.15506227 1123.30995216 -1047.44921875 1123.29296875 C-1049.05205254 1123.27423509 -1050.65487669 1123.25466008 -1052.25769043 1123.23428345 C-1056.45298556 1123.18318813 -1060.64831258 1123.14344225 -1064.84375 1123.10614014 C-1069.13419335 1123.06595792 -1073.42450662 1123.0149308 -1077.71484375 1122.96484375 C-1086.1157962 1122.86835245 -1094.5168136 1122.78386292 -1102.91796875 1122.70703125 C-1103.72132795 1120.98357413 -1104.51985822 1119.25786567 -1105.31640625 1117.53125 C-1105.76161621 1116.57049561 -1106.20682617 1115.60974121 -1106.66552734 1114.61987305 C-1113.65097924 1098.37359106 -1114.49443408 1079.98781413 -1115.48046875 1062.58203125 C-1115.70618399 1058.76663171 -1115.93759957 1054.95160172 -1116.171875 1051.13671875 C-1116.22927353 1050.19513916 -1116.28667206 1049.25355957 -1116.34580994 1048.28344727 C-1116.93768506 1038.86501337 -1117.78666645 1029.4748653 -1118.69009399 1020.08184814 C-1118.89065491 1017.99168481 -1119.08486654 1015.90091428 -1119.27807617 1013.81005859 C-1121.74970816 987.18983656 -1125.08238612 960.5983651 -1131.25439453 934.56005859 C-1131.97645818 931.45555684 -1132.65074357 928.34279238 -1133.3203125 925.2265625 C-1138.07699417 898.00144092 -1138.07699417 898.00144092 -1151.16796875 874.64453125 C-1151.74546875 874.33515625 -1152.32296875 874.02578125 -1152.91796875 873.70703125 C-1152.31625054 870.05725842 -1151.30561518 867.07479575 -1149.6953125 863.75 C-1149.24325439 862.81043457 -1148.79119629 861.87086914 -1148.32543945 860.90283203 C-1147.59780396 859.41372314 -1147.59780396 859.41372314 -1146.85546875 857.89453125 C-1146.35813232 856.86569824 -1145.8607959 855.83686523 -1145.34838867 854.77685547 C-1142.20963028 848.30123962 -1139.01234899 841.85627865 -1135.77172852 835.43115234 C-1130.43354126 824.81504991 -1125.50308309 813.99946083 -1120.54296875 803.203125 C-1119.30627468 800.54244906 -1118.05639735 797.89014188 -1116.79296875 795.2421875 C-1113.20064744 787.71304418 -1109.645833 780.18627949 -1106.35546875 772.51953125 C-1103.75452946 766.46321965 -1100.89312048 760.58198703 -1097.90039062 754.71069336 C-1095.21842591 749.409663 -1092.8254245 744.01537471 -1090.48779297 738.55541992 C-1088.65013641 734.29407428 -1086.66426785 730.14996881 -1084.54296875 726.01953125 C-1081.73823519 720.50293611 -1079.25387332 714.91090496 -1076.85546875 709.20703125 C-1073.22398076 700.58766889 -1069.34221342 692.10475424 -1065.35546875 683.64453125 C-1059.36069749 670.91203909 -1053.59540255 658.08752946 -1047.90478516 645.21655273 C-1047.23605952 643.70423915 -1046.56727711 642.19195068 -1045.8984375 640.6796875 C-1045.56890076 639.93450363 -1045.23936401 639.18931976 -1044.89984131 638.42155457 C-1042.61195065 633.25515425 -1040.29921949 628.10045106 -1037.96875 622.953125 C-1037.49246658 621.9011367 -1037.49246658 621.9011367 -1037.00656128 620.82789612 C-1035.51457409 617.53499823 -1034.01954656 614.24350725 -1032.52148438 610.95336914 C-1029.63983232 604.60423945 -1026.85548721 598.23071979 -1024.19799805 591.78466797 C-1022.02345534 586.55630914 -1019.75588244 581.36826638 -1017.49716187 576.17584229 C-1016.07423997 572.90455161 -1014.6542723 569.63197939 -1013.234375 566.359375 C-1012.95265945 565.7101709 -1012.67094391 565.0609668 -1012.38069153 564.39208984 C-1008.52870839 555.51041247 -1004.72082133 546.60983342 -1000.91796875 537.70703125 C-1000.25796875 537.70703125 -999.59796875 537.70703125 -998.91796875 537.70703125 C-993.9912104 552.36794765 -989.10320532 567.02950241 -984.6796875 581.8515625 C-984.46852295 582.54894531 -984.2573584 583.24632812 -984.03979492 583.96484375 C-983.46222925 585.87328217 -982.89288071 587.78420212 -982.32421875 589.6953125 C-980.95455429 593.87873253 -979.09806296 597.81137204 -977.24707031 601.80004883 C-975.04788033 606.61006998 -973.05723379 611.50490487 -971.04296875 616.39453125 C-965.69822201 629.27420254 -960.36037237 642.07820063 -954.02978516 654.5090332 C-952.23241729 658.04516841 -950.48962243 661.59515517 -948.83203125 665.19921875 C-942.37919643 679.22769637 -934.81215795 692.47453407 -926.9296875 705.7421875 C-926.46361084 706.52835449 -925.99753418 707.31452148 -925.51733398 708.12451172 C-924.63767536 709.60434994 -923.75329094 711.08139231 -922.86352539 712.55517578 C-919.91796875 717.48820608 -919.91796875 717.48820608 -919.91796875 719.70703125 C-920.88899536 719.72890503 -920.88899536 719.72890503 -921.87963867 719.7512207 C-942.62381447 720.2688648 -962.27793084 721.6788423 -981.91796875 728.70703125 C-981.91796875 729.36703125 -981.91796875 730.02703125 -981.91796875 730.70703125 C-977.63065241 732.80898401 -973.72805226 733.01508938 -969.04296875 732.95703125 C-968.26195801 732.95316406 -967.48094727 732.94929688 -966.67626953 732.9453125 C-961.30578755 732.86956819 -955.99794597 732.49848467 -950.65307617 731.98242188 C-946.76172553 731.60773613 -942.86591648 731.2961456 -938.96923828 730.98242188 C-936.89150124 730.79489688 -934.81661071 730.57345111 -932.74560547 730.32226562 C-915.1888433 728.23694897 -915.1888433 728.23694897 -909.86572266 732.25683594 C-906.09461685 736.45711416 -903.59733941 741.31150909 -901.12548828 746.35205078 C-899.38979516 749.73710858 -897.2469712 752.72474755 -894.98046875 755.76953125 C-894.58013428 756.32415039 -894.1797998 756.87876953 -893.76733398 757.45019531 C-874.55722108 784.04822761 -853.44185799 809.21193646 -830.29296875 832.45703125 C-829.49810059 833.25657227 -828.70323242 834.05611328 -827.88427734 834.87988281 C-827.14000488 835.62206055 -826.39573242 836.36423828 -825.62890625 837.12890625 C-824.96165527 837.7950293 -824.2944043 838.46115234 -823.60693359 839.14746094 C-821.98686337 840.78850874 -821.98686337 840.78850874 -819.91796875 841.70703125 C-819.91796875 842.36703125 -819.91796875 843.02703125 -819.91796875 843.70703125 C-819.38171875 843.93390625 -818.84546875 844.16078125 -818.29296875 844.39453125 C-814.57936829 846.44678414 -811.53223741 849.30853117 -808.33984375 852.07421875 C-804.4773638 855.4817506 -804.4773638 855.4817506 -799.91796875 857.70703125 C-798.24398305 857.41264926 -796.57561621 857.0826558 -794.91796875 856.70703125 C-794.78188625 844.83005284 -795.17811718 833.05955274 -795.91796875 821.20703125 C-796.1088547 818.09264374 -796.29653668 814.97808723 -796.48046875 811.86328125 C-796.52349121 811.13608887 -796.56651367 810.40889648 -796.61083984 809.65966797 C-796.89422672 804.66396217 -797.00974657 799.70892226 -796.91796875 794.70703125 C-794.13632299 796.00173881 -791.86666163 797.42340076 -789.51953125 799.39453125 C-788.88281494 799.92320801 -788.24609863 800.45188477 -787.59008789 800.99658203 C-786.91453857 801.56103027 -786.23898926 802.12547852 -785.54296875 802.70703125 C-778.22351059 808.72778205 -770.75189884 814.37557735 -762.91796875 819.70703125 C-762.29937988 820.13161621 -761.68079102 820.55620117 -761.04345703 820.99365234 C-723.88054529 846.33498651 -682.38733936 862.0272468 -638.91796875 872.70703125 C-637.9125 872.95453125 -636.90703125 873.20203125 -635.87109375 873.45703125 C-630.36854191 874.68741551 -624.52922173 875.62255147 -618.91796875 874.70703125 C-617.55397168 873.74927879 -616.21536733 872.75323138 -614.91796875 871.70703125 C-614.25796875 871.70703125 -613.59796875 871.70703125 -612.91796875 871.70703125 C-612.50417969 870.87945313 -612.50417969 870.87945313 -612.08203125 870.03515625 C-610.02734375 865.92578125 -607.97265625 861.81640625 -605.91796875 857.70703125 C-602.70259893 858.90036438 -600.05496272 860.18548673 -597.29296875 862.20703125 C-583.2764375 871.76268991 -563.52126867 884.0880247 -545.91796875 881.70703125 C-541.00373843 877.61183932 -540.91524348 872.39015934 -540.34735107 866.31822205 C-540.28686584 865.6279744 -540.22638062 864.93772675 -540.1640625 864.2265625 C-540.09866272 863.48277847 -540.03326294 862.73899445 -539.96588135 861.97267151 C-534.47584094 797.65329849 -533.22431853 723.72814137 -549.91796875 660.70703125 C-546.45940499 661.85988584 -545.88489909 662.71940354 -543.765625 665.58203125 C-543.16000732 666.39406006 -542.55438965 667.20608887 -541.93041992 668.04272461 C-540.96519409 669.3615564 -540.96519409 669.3615564 -539.98046875 670.70703125 C-539.31313721 671.60752197 -538.64580566 672.5080127 -537.95825195 673.43579102 C-533.25409092 679.80987595 -528.66936554 686.26355411 -524.12939453 692.75512695 C-519.97878964 698.67264758 -515.64332953 704.41478711 -511.17871094 710.09912109 C-509.85878974 711.78250627 -508.54809758 713.47280578 -507.23828125 715.1640625 C-498.82886549 725.98855128 -490.0197072 736.45732579 -480.91796875 746.70703125 C-480.221875 747.4959375 -479.52578125 748.28484375 -478.80859375 749.09765625 C-474.36899645 754.08837597 -469.79046685 758.8691006 -465.03515625 763.55859375 C-463.07491463 765.54776882 -461.23556932 767.58789326 -459.41796875 769.70703125 C-453.78450042 776.25122195 -447.62157961 782.21871243 -441.0703125 787.8359375 C-438.53744713 790.03782954 -436.07464353 792.30898951 -433.60546875 794.58203125 C-429.17435254 798.61859602 -424.64367241 802.47811327 -419.9765625 806.23828125 C-417.7246214 808.05593997 -415.49033615 809.88791221 -413.265625 811.73828125 C-405.18127667 818.43403099 -396.90601096 824.68810087 -388.27734375 830.6640625 C-384.49690192 833.28424678 -380.78623169 835.99041453 -377.08105469 838.71557617 C-369.79968716 844.05850879 -362.43474918 848.99479788 -354.625 853.52734375 C-351.35647907 855.42609123 -348.17428205 857.44061062 -344.9934082 859.48193359 C-337.24296598 864.43958457 -329.3326855 868.74135751 -321.02929688 872.69628906 C-318.8429724 873.74293376 -316.66939934 874.81332937 -314.49609375 875.88671875 C-287.51497643 889.09323545 -261.01158045 898.12534765 -230.91796875 899.70703125 C-231.78925625 897.41043258 -231.78925625 897.41043258 -234.62670898 896.62548828 C-235.81466064 896.24247559 -237.0026123 895.85946289 -238.2265625 895.46484375 C-238.86731216 895.25519989 -239.50806183 895.04555603 -240.16822815 894.82955933 C-242.22840647 894.15659886 -244.29165239 893.49374222 -246.35546875 892.83203125 C-249.04311738 891.9640545 -251.72925736 891.09157589 -254.4140625 890.21484375 C-255.06673599 890.00186142 -255.71940948 889.78887909 -256.39186096 889.56944275 C-261.66449941 887.83050115 -266.79040502 885.82769407 -271.91796875 883.70703125 C-273.97890971 882.93203922 -276.04120247 882.16062198 -278.10546875 881.39453125 C-290.16284685 876.75490856 -301.54650907 870.93388595 -312.9140625 864.83203125 C-316.2951953 863.02279356 -319.71710521 861.31767721 -323.16796875 859.64453125 C-354.2218918 844.1802627 -385.22250074 821.91117522 -411.33789062 799.08105469 C-413.01497949 797.62267148 -414.7066798 796.18282776 -416.40234375 794.74609375 C-428.32377878 784.63751313 -439.66419693 774.0523078 -450.73046875 763.01953125 C-451.2306955 762.52198334 -451.73092224 762.02443542 -452.24630737 761.5118103 C-458.02500219 755.75658443 -463.61906262 749.90933384 -468.91796875 743.70703125 C-470.37242392 742.09934752 -471.8301777 740.4946341 -473.29296875 738.89453125 C-477.17147602 734.59743298 -480.84662843 730.16944371 -484.484375 725.66796875 C-486.66982952 723.00894062 -488.90267885 720.40578355 -491.16333008 717.8112793 C-497.93452553 710.02929368 -504.20942795 701.9281278 -510.41455078 693.69091797 C-511.77573775 691.89471704 -513.15153433 690.11182418 -514.5390625 688.3359375 C-520.62340749 680.53824096 -526.43566226 672.58360913 -532.02783203 664.42529297 C-533.80210985 661.87365137 -535.61596064 659.35357002 -537.43743896 656.83552551 C-549.07943453 640.64256548 -555.93721085 626.75451127 -558.91796875 606.70703125 C-562.50338658 586.45675907 -568.19839 566.49941594 -573.41534424 546.62231445 C-573.85223103 544.9575291 -574.28735569 543.29228151 -574.72216797 541.62695312 C-577.92108352 529.49951886 -581.88041646 517.6381781 -585.91796875 505.76953125 C-586.16954742 505.02622559 -586.4211261 504.28291992 -586.68032837 503.51708984 C-590.01187613 493.70619709 -593.67596756 484.16749709 -597.91796875 474.70703125 C-598.50674805 473.38723267 -598.50674805 473.38723267 -599.10742188 472.04077148 C-600.11097419 469.81715636 -601.13439212 467.60431809 -602.16796875 465.39453125 C-602.50570313 464.65525391 -602.8434375 463.91597656 -603.19140625 463.15429688 C-604.78230929 459.25081397 -604.78230929 459.25081397 -607.91796875 456.70703125 C-605.1926276 469.50617685 -602.03616861 482.1425904 -598.60546875 494.76953125 C-598.11537157 496.5865972 -597.62554725 498.40373676 -597.13598633 500.22094727 C-594.52780509 509.88251689 -591.85252446 519.5215358 -589.10546875 529.14453125 C-585.8609136 540.5448092 -583.2112124 552.0575319 -580.61767578 563.62060547 C-579.52745899 568.4295799 -578.38024561 573.22451334 -577.23046875 578.01953125 C-576.82156308 579.7369669 -576.41270653 581.45441426 -576.00390625 583.171875 C-575.37389243 585.81283653 -574.73409264 588.4502688 -574.08203125 591.0859375 C-572.21952221 598.76628391 -570.85959284 606.50854734 -569.54101562 614.296875 C-568.63314426 619.64817714 -567.68540902 624.98697232 -566.65625 630.31640625 C-564.34127414 642.32382049 -562.29840396 654.2697713 -560.99389648 666.43310547 C-560.51360816 670.88090868 -560.00085382 675.30548445 -559.25732422 679.7175293 C-556.62634791 695.51632637 -555.56582398 711.41816204 -554.45245361 727.378479 C-554.24024546 730.39365392 -554.02034283 733.40824612 -553.80033207 736.42286015 C-553.13713848 745.51531269 -552.51461837 754.60998493 -551.91796875 763.70703125 C-551.85326385 764.66197479 -551.78855896 765.61691833 -551.72189331 766.60079956 C-550.57727326 783.92029651 -550.73068822 801.29087628 -550.73266602 818.63989258 C-550.73276862 823.04503113 -550.71897657 827.45001207 -550.70189381 831.85511303 C-550.69073802 835.28940042 -550.6887477 838.72364962 -550.68927574 842.15795326 C-550.68810643 843.78247954 -550.68374463 845.40700715 -550.67594337 847.03151512 C-550.63926779 855.43556485 -550.70420233 863.52543326 -552.91796875 871.70703125 C-558.51269327 871.12143206 -563.05691296 869.0941238 -568.10546875 866.76953125 C-569.40701904 866.17760986 -569.40701904 866.17760986 -570.73486328 865.57373047 C-578.59759288 861.94991417 -586.25622375 857.97163455 -593.87890625 853.87109375 C-601.49977239 849.11982829 -601.49977239 849.11982829 -609.91796875 848.70703125 C-612.29557449 851.8298567 -614.09396595 855.23878245 -615.91796875 858.70703125 C-617.60546875 861.89453125 -617.60546875 861.89453125 -619.91796875 863.70703125 C-627.27322862 863.86445655 -634.49554726 862.06178008 -641.54296875 860.14453125 C-642.52442871 859.8820459 -643.50588867 859.61956055 -644.51708984 859.34912109 C-656.10904819 856.19134335 -667.54467624 852.57387496 -678.91796875 848.70703125 C-679.7800293 848.41666992 -680.64208984 848.12630859 -681.53027344 847.82714844 C-693.80085391 843.6271511 -705.44646554 838.22323565 -717.10546875 832.58203125 C-717.81711182 832.23841553 -718.52875488 831.8947998 -719.26196289 831.54077148 C-726.57578414 827.99593225 -733.77000379 824.36511826 -740.68383789 820.07543945 C-742.91938801 818.70616195 -745.19139429 817.44405134 -747.49609375 816.1953125 C-752.06620939 813.67694247 -756.37260403 810.85316997 -760.66796875 807.89453125 C-761.47145752 807.34337646 -762.27494629 806.79222168 -763.1027832 806.22436523 C-771.33348915 800.5179008 -779.28344315 794.45349103 -787.2109375 788.3359375 C-788.00145508 787.72741943 -788.79197266 787.11890137 -789.60644531 786.49194336 C-791.14478555 785.30406783 -792.67803514 784.10956976 -794.20605469 782.90844727 C-794.91407227 782.35987061 -795.62208984 781.81129395 -796.3515625 781.24609375 C-796.97216553 780.75963379 -797.59276855 780.27317383 -798.23217773 779.77197266 C-799.99230739 778.47220407 -799.99230739 778.47220407 -802.79296875 778.51953125 C-805.67941101 780.1325431 -805.92417668 781.59546521 -806.91796875 784.70703125 C-807.203436 787.31028373 -807.203436 787.31028373 -807.14501953 790.0480957 C-807.14479294 791.60914787 -807.14479294 791.60914787 -807.14456177 793.20173645 C-807.1342392 794.31336655 -807.12391663 795.42499664 -807.11328125 796.5703125 C-807.11045135 797.7174321 -807.10762146 798.8645517 -807.10470581 800.0464325 C-807.09352572 803.70423893 -807.0684247 807.36179903 -807.04296875 811.01953125 C-807.03293616 813.50194958 -807.0238108 815.98437176 -807.015625 818.46679688 C-806.99359346 824.54695881 -806.96013723 830.62697743 -806.91796875 836.70703125 C-810.10418178 835.2024762 -811.92291655 833.81750747 -814.16796875 831.08203125 C-817.86509176 826.71485396 -821.835211 822.71157525 -825.91796875 818.70703125 C-830.59761968 814.11702881 -835.09879511 809.46173829 -839.37695312 804.49316406 C-841.25955975 802.31110607 -843.21268215 800.19897541 -845.16796875 798.08203125 C-850.75368156 791.88198455 -855.85086171 785.33180453 -860.91796875 778.70703125 C-861.40168945 778.07490723 -861.88541016 777.4427832 -862.38378906 776.79150391 C-879.67381209 754.12046052 -895.38716052 730.49427405 -910.20703125 706.1484375 C-911.85656198 703.44031319 -913.51477785 700.73830479 -915.19140625 698.046875 C-921.99690063 687.10854207 -927.87947194 675.85348901 -933.59985352 664.32006836 C-936.69176534 658.10224466 -939.8908364 651.95384832 -943.16796875 645.83203125 C-947.53698032 637.63085286 -951.3452799 629.2814845 -954.91796875 620.70703125 C-955.32144531 619.7428125 -955.72492187 618.77859375 -956.140625 617.78515625 C-956.93393612 615.88120956 -957.72136235 613.97480364 -958.50390625 612.06640625 C-959.56010894 609.55719544 -960.64719983 607.07693711 -961.76953125 604.59765625 C-978.42347227 567.41839503 -989.82407018 527.94510704 -997.46826172 487.99560547 C-997.75920926 486.51496366 -998.0645975 485.03705535 -998.38720703 483.56298828 C-1000.09893633 475.61090052 -1001.07391184 467.56202458 -1002.09521484 459.49853516 C-1002.41207034 457.00347789 -1002.73686179 454.5095492 -1003.0625 452.015625 C-1003.72066374 446.91720972 -1004.33326907 441.81437221 -1004.91796875 436.70703125 C-1005.01686401 435.84809265 -1005.11575928 434.98915405 -1005.21765137 434.10418701 C-1006.81374062 419.82414063 -1007.23147996 405.65775447 -1007.17871094 391.29443359 C-1007.1679995 387.84194298 -1007.17867552 384.38997494 -1007.19140625 380.9375 C-1007.21211189 347.65658734 -1002.73345955 315.22472117 -995.91796875 282.70703125 C-995.68207031 281.57910156 -995.44617188 280.45117188 -995.203125 279.2890625 C-991.77576924 263.23664486 -986.81383813 248.01778089 -980.91796875 232.70703125 C-981.57796875 232.37703125 -982.23796875 232.04703125 -982.91796875 231.70703125 C-983.20414063 232.30128906 -983.4903125 232.89554688 -983.78515625 233.5078125 C-984.91796875 235.70703125 -984.91796875 235.70703125 -987.04296875 238.89453125 C-1013.14911725 280.52534202 -1018.3598938 339.71767008 -1018.17871094 387.65795898 C-1018.16800821 391.00718413 -1018.17867627 394.3558692 -1018.19140625 397.70507812 C-1018.20966568 427.33851013 -1015.79979132 457.1061918 -1009.27807617 486.05004883 C-1006.11023721 500.33568909 -1006.06171755 509.61040733 -1012.90478516 522.74169922 C-1014.55423744 525.94123918 -1016.07829338 529.19779631 -1017.60546875 532.45703125 C-1017.93708008 533.16085937 -1018.26869141 533.8646875 -1018.61035156 534.58984375 C-1027.53278851 553.60894011 -1035.78530933 572.94604513 -1044.16796875 592.20703125 C-1044.5916272 593.17982025 -1045.01528564 594.15260925 -1045.45178223 595.15487671 C-1050.12229078 605.88363163 -1054.76441412 616.62181544 -1059.2567749 627.42663574 C-1061.48953013 632.77532159 -1063.90477248 638.01257008 -1066.39030457 643.24874878 C-1068.58319407 647.87974026 -1070.55480237 652.58448639 -1072.48046875 657.33203125 C-1074.93943843 663.39400862 -1077.54657165 669.35268158 -1080.32421875 675.27734375 C-1085.14681251 685.65537641 -1089.69430888 696.16382426 -1094.26660156 706.65405273 C-1095.82633862 710.22822835 -1097.40039484 713.79544101 -1098.9921875 717.35546875 C-1099.34410156 718.14308594 -1099.69601562 718.93070313 -1100.05859375 719.7421875 C-1100.73005607 721.24295588 -1101.40309348 722.74302112 -1102.078125 724.2421875 C-1103.73025165 727.93557808 -1105.30207497 731.64394319 -1106.78125 735.41015625 C-1109.28472972 741.72791416 -1112.11213933 747.89413042 -1114.91796875 754.08203125 C-1120.96505451 767.47787974 -1126.79317057 780.958999 -1132.54541016 794.484375 C-1134.25507276 798.49852412 -1135.97674113 802.50745076 -1137.69921875 806.51611328 C-1140.38850416 812.77483453 -1143.06735058 819.03579778 -1145.66796875 825.33203125 C-1147.08869898 828.76402642 -1148.56223129 832.16016786 -1150.11328125 835.53515625 C-1154.17126479 844.4284062 -1158.08593912 853.38533928 -1162.02368164 862.33227539 C-1162.69024308 863.84652743 -1163.35682836 865.36076896 -1164.0234375 866.875 C-1164.35225418 867.62211746 -1164.68107086 868.36923492 -1165.01985168 869.13899231 C-1166.84541944 873.28366736 -1168.68011147 877.42405325 -1170.52838135 881.55865479 C-1171.31921668 883.3279261 -1172.10764518 885.09827262 -1172.89599609 886.86865234 C-1173.84896702 889.007656 -1174.80613996 891.14479389 -1175.76806641 893.27978516 C-1176.39720947 894.69590088 -1176.39720947 894.69590088 -1177.0390625 896.140625 C-1177.58711548 897.3635022 -1177.58711548 897.3635022 -1178.14624023 898.61108398 C-1179.09073025 900.80398499 -1179.09073025 900.80398499 -1178.91796875 903.70703125 C-1170.05118337 900.09916685 -1163.91410696 889.66914379 -1159.29296875 881.7265625 C-1158.83921875 881.06011719 -1158.38546875 880.39367188 -1157.91796875 879.70703125 C-1157.25796875 879.70703125 -1156.59796875 879.70703125 -1155.91796875 879.70703125 C-1151.51805663 895.62452869 -1147.2973954 911.53940046 -1143.91796875 927.70703125 C-1143.68223145 928.815625 -1143.44649414 929.92421875 -1143.20361328 931.06640625 C-1134.09362947 974.50034337 -1129.46546086 1020.12710743 -1128.34838867 1064.46899414 C-1128.03835115 1074.13531232 -1127.01199002 1083.72122679 -1125.98046875 1093.33203125 C-1125.89474609 1094.14687988 -1125.80902344 1094.96172852 -1125.72070312 1095.80126953 C-1125.47259131 1098.13797147 -1125.21481205 1100.47337686 -1124.953125 1102.80859375 C-1124.87912979 1103.50232086 -1124.80513458 1104.19604797 -1124.72889709 1104.91079712 C-1124.3474938 1108.1938034 -1123.77305827 1111.20805401 -1122.85327148 1114.38818359 C-1121.91796875 1117.70703125 -1121.91796875 1117.70703125 -1121.91796875 1122.70703125 C-1141.38796875 1122.70703125 -1160.85796875 1122.70703125 -1180.91796875 1122.70703125 C-1182.56796875 1116.76703125 -1184.21796875 1110.82703125 -1185.91796875 1104.70703125 C-1187.48857079 1099.93670354 -1187.48857079 1099.93670354 -1189.12109375 1095.1875 C-1189.91796875 1092.70703125 -1189.91796875 1092.70703125 -1190.375 1089.9609375 C-1190.64376953 1088.84525391 -1190.64376953 1088.84525391 -1190.91796875 1087.70703125 C-1193.31326544 1086.38221579 -1193.31326544 1086.38221579 -1195.91796875 1085.70703125 C-1196.57796875 1085.37703125 -1197.23796875 1085.04703125 -1197.91796875 1084.70703125 C-1200.01151894 1084.61535336 -1202.10806052 1084.58952192 -1204.20361328 1084.59350586 C-1205.16965485 1084.59328682 -1205.16965485 1084.59328682 -1206.1552124 1084.59306335 C-1208.28710277 1084.59376085 -1210.41890612 1084.60154559 -1212.55078125 1084.609375 C-1214.02765861 1084.61123976 -1215.50453659 1084.61266339 -1216.98141479 1084.61366272 C-1220.87109074 1084.61748333 -1224.76072942 1084.62730973 -1228.65039062 1084.6383667 C-1232.61848446 1084.64859061 -1236.5865843 1084.65316244 -1240.5546875 1084.65820312 C-1248.34246491 1084.6689324 -1256.13021161 1084.68600336 -1263.91796875 1084.70703125 C-1264.20165047 1054.30944382 -1263.50647945 1024.06406212 -1261.91796875 993.70703125 C-1258.16250835 995.13312831 -1254.66467563 996.82924065 -1251.12109375 998.71875 C-1250.00565186 999.30865723 -1248.89020996 999.89856445 -1247.7409668 1000.50634766 C-1247.15745453 1000.81517883 -1246.57394226 1001.12401001 -1245.9727478 1001.44219971 C-1217.81719056 1017.60560394 -1217.81719056 1017.60560394 -1186.91796875 1019.70703125 C-1185.92796875 1019.37703125 -1184.93796875 1019.04703125 -1183.91796875 1018.70703125 C-1183.91796875 1017.71703125 -1183.91796875 1016.72703125 -1183.91796875 1015.70703125 C-1184.51077637 1015.54485107 -1185.10358398 1015.3826709 -1185.71435547 1015.21557617 C-1192.40263783 1013.30752132 -1198.68787871 1010.8322899 -1205.04296875 1008.01953125 C-1206.04996826 1007.57673828 -1207.05696777 1007.13394531 -1208.09448242 1006.67773438 C-1216.50913021 1002.9471354 -1224.78768419 999.02221204 -1232.91796875 994.70703125 C-1233.61664062 994.33642578 -1234.3153125 993.96582031 -1235.03515625 993.58398438 C-1246.18215081 987.62371415 -1256.8880426 981.07145022 -1267.51806641 974.23925781 C-1269.91565172 972.70851057 -1272.32603018 971.20045392 -1274.7421875 969.69921875 C-1284.62655417 963.54858929 -1294.21181598 957.09589723 -1303.66992188 950.31054688 C-1308.63635935 946.76802284 -1313.64961671 943.29142084 -1318.65649414 939.80639648 C-1322.50000293 937.12506205 -1326.32329795 934.42679768 -1330.0859375 931.6328125 C-1330.71798096 931.16697754 -1331.35002441 930.70114258 -1332.0012207 930.22119141 C-1333.66479715 928.98943307 -1335.31913278 927.745221 -1336.97265625 926.5 C-1340.06460451 924.61776624 -1342.34069842 924.03272303 -1345.91796875 923.70703125 C-1356.80009287 943.52804304 -1357.36871519 966.60640334 -1357.91796875 988.70703125 C-1361.51435227 985.48240873 -1363.80219955 981.83495871 -1366.10546875 977.64453125 C-1366.49202637 976.94626221 -1366.87858398 976.24799316 -1367.27685547 975.52856445 C-1375.15393218 961.09787458 -1381.64499026 946.27304303 -1386.91796875 930.70703125 C-1387.18206543 929.94938477 -1387.44616211 929.19173828 -1387.71826172 928.41113281 C-1392.68758986 913.99792999 -1395.11751441 899.25157334 -1397.38525391 884.22094727 C-1397.73286719 881.92800594 -1398.0914201 879.63668865 -1398.46240234 877.34741211 C-1411.91591033 793.80949694 -1397.69170464 703.33896811 -1374.91796875 622.70703125 C-1374.64243164 621.72798828 -1374.36689453 620.74894531 -1374.08300781 619.74023438 C-1372.46021298 614.0298536 -1370.72545112 608.36145472 -1368.91796875 602.70703125 C-1368.44738037 601.22372314 -1368.44738037 601.22372314 -1367.96728516 599.71044922 C-1359.79382494 574.10492449 -1349.93993551 549.21379305 -1338.91796875 524.70703125 C-1338.44214355 523.64709961 -1337.96631836 522.58716797 -1337.47607422 521.49511719 C-1331.08033184 507.30410821 -1324.36477684 493.37489474 -1316.91796875 479.70703125 C-1316.02449093 478.04700881 -1315.13126797 476.38684918 -1314.23828125 474.7265625 C-1305.68966923 458.9166517 -1296.35195259 443.74578982 -1286.41796875 428.76953125 C-1285.72292236 427.71991211 -1285.02787598 426.67029297 -1284.31176758 425.58886719 C-1283.32793091 424.11788574 -1283.32793091 424.11788574 -1282.32421875 422.6171875 C-1281.73962891 421.74199463 -1281.15503906 420.86680176 -1280.55273438 419.96508789 C-1279.12791935 417.99703023 -1277.69494795 416.35424243 -1275.91796875 414.70703125 C-1271.97313143 416.50643073 -1268.44461396 418.92326974 -1264.85546875 421.33203125 C-1264.19297119 421.77353516 -1263.53047363 422.21503906 -1262.84790039 422.66992188 C-1257.89983299 425.98892956 -1253.10237454 429.47481952 -1248.3828125 433.11328125 C-1245.6496984 434.8804929 -1243.03324928 435.80274082 -1239.91796875 436.70703125 C-1232.36860053 429.40119104 -1225.64480923 421.4641063 -1219.22070312 413.16894531 C-1215.38242621 408.23667962 -1211.36185048 403.48667005 -1207.27172852 398.76245117 C-1203.39172479 394.27772214 -1199.62122792 389.71310176 -1195.8828125 385.109375 C-1193.69841956 382.43859635 -1191.46026922 379.82017107 -1189.203125 377.2109375 C-1187.38714306 375.08585225 -1185.64773357 372.90250198 -1183.91796875 370.70703125 C-1180.20880124 372.06408425 -1177.10449863 373.7503986 -1173.8203125 375.9375 C-1172.85915527 376.57292725 -1171.89799805 377.20835449 -1170.90771484 377.86303711 C-1169.90047363 378.53343018 -1168.89323242 379.20382324 -1167.85546875 379.89453125 C-1158.39910994 386.13736783 -1158.39910994 386.13736783 -1148.79296875 392.14453125 C-1147.94476562 392.65886719 -1147.0965625 393.17320312 -1146.22265625 393.703125 C-1143.52167918 394.8796523 -1141.83239068 395.1396779 -1138.91796875 394.70703125 C-1133.6261788 390.71650112 -1129.97171996 384.09119626 -1126.18188477 378.69799805 C-1121.69265603 372.3207681 -1116.99039741 366.10787071 -1112.27148438 359.89941406 C-1110.46852918 357.51495312 -1108.68668626 355.11698313 -1106.91796875 352.70703125 C-1106.31662109 351.89314941 -1105.71527344 351.07926758 -1105.09570312 350.24072266 C-1104.25749023 349.05808838 -1104.25749023 349.05808838 -1103.40234375 347.8515625 C-1102.89928711 347.1500708 -1102.39623047 346.4485791 -1101.87792969 345.72583008 C-1100.73349581 343.75632892 -1100.73349581 343.75632892 -1101.09814453 341.57568359 C-1102.45024843 338.49378864 -1105.25983079 337.18956323 -1108.04296875 335.51953125 C-1108.66534424 335.13369873 -1109.28771973 334.74786621 -1109.92895508 334.3503418 C-1111.91770296 333.12299882 -1113.91698232 331.9142979 -1115.91796875 330.70703125 C-1117.21119024 329.91577751 -1118.50416274 329.12411667 -1119.796875 328.33203125 C-1127.05695843 323.90946671 -1134.40539208 319.68979019 -1141.91796875 315.70703125 C-1141.04565588 311.262361 -1138.55090376 308.63348769 -1135.60546875 305.33203125 C-1134.51028466 304.0795425 -1133.41523646 302.82693491 -1132.3203125 301.57421875 C-1131.47509033 300.61467285 -1131.47509033 300.61467285 -1130.61279297 299.63574219 C-1127.94155699 296.5958741 -1125.30290218 293.52836892 -1122.66796875 290.45703125 C-1122.17224365 289.88017578 -1121.67651855 289.30332031 -1121.16577148 288.70898438 C-1116.96372739 283.80111999 -1112.90273134 278.79346349 -1108.91796875 273.70703125 C-1105.5126058 275.01477839 -1102.30025088 276.48761717 -1099.08203125 278.203125 C-1098.18226563 278.67943359 -1097.2825 279.15574219 -1096.35546875 279.64648438 C-1094.48817544 280.64107741 -1092.62098704 281.63586744 -1090.75390625 282.63085938 C-1082.63800841 287.58784662 -1082.63800841 287.58784662 -1073.703125 289.578125 C-1071.58698075 288.54552069 -1070.09241672 287.36392194 -1068.35546875 285.76953125 C-1067.66453125 285.14046875 -1066.97359375 284.51140625 -1066.26171875 283.86328125 C-1065.48828125 283.15171875 -1064.71484375 282.44015625 -1063.91796875 281.70703125 C-1063.02078125 280.91296875 -1062.12359375 280.11890625 -1061.19921875 279.30078125 C-1055.67899823 274.38717837 -1050.67059764 269.35414585 -1045.91796875 263.70703125 C-1041.08525635 258.16778195 -1036.09900983 252.85436811 -1030.85546875 247.70703125 C-1021.41187771 238.74174037 -1021.41187771 238.74174037 -1014.91796875 227.70703125 C-1014.89511579 225.61543022 -1014.89511579 225.61543022 -1015.91796875 223.70703125 C-1017.8352289 221.9365282 -1017.8352289 221.9365282 -1020.29296875 220.39453125 C-1021.19660156 219.79125 -1022.10023438 219.18796875 -1023.03125 218.56640625 C-1026.75288616 216.16924953 -1030.47648816 213.77666718 -1034.22265625 211.41796875 C-1038.16613244 208.91471865 -1042.04503709 206.31767407 -1045.91796875 203.70703125 C-1044.62332775 200.91397375 -1043.20960744 198.67553954 -1041.1953125 196.3515625 C-1040.66115723 195.7335376 -1040.12700195 195.1155127 -1039.57666016 194.47875977 C-1039.00866699 193.83221436 -1038.44067383 193.18566895 -1037.85546875 192.51953125 C-1037.27200684 191.85042725 -1036.68854492 191.18132324 -1036.08740234 190.49194336 C-1032.18014275 186.04669658 -1028.12596845 181.80708368 -1023.89453125 177.66796875 C-1020.7046663 174.50332012 -1017.77093335 171.17652633 -1014.91796875 167.70703125 C-1014.10328125 166.71960938 -1013.28859375 165.7321875 -1012.44921875 164.71484375 C-1011.60331252 163.65145126 -1010.7595501 162.58634978 -1009.91796875 161.51953125 C-1009.13421875 160.53597656 -1008.35046875 159.55242187 -1007.54296875 158.5390625 C-1005.67525289 155.85937576 -1005.67525289 155.85937576 -1006.0078125 153 C-1008.33783653 147.12993946 -1015.72048459 143.80705353 -1020.91796875 140.70703125 C-1018.25880443 137.83708644 -1015.91486426 135.97025841 -1012.3671875 134.33203125 C-1011.0044873 133.70022949 -1011.0044873 133.70022949 -1009.61425781 133.05566406 C-1008.62135742 132.61061523 -1007.62845703 132.16556641 -1006.60546875 131.70703125 C-1005.54424805 131.2284668 -1004.48302734 130.74990234 -1003.38964844 130.25683594 C-982.45312131 120.95238452 -960.95285744 113.25093687 -939.29296875 105.83203125 C-937.92803284 105.36271179 -937.92803284 105.36271179 -936.53552246 104.88391113 C-903.2744236 93.48014877 -869.39428728 85.42441682 -834.91796875 78.70703125 C-834.03222168 78.53171875 -833.14647461 78.35640625 -832.23388672 78.17578125 C-805.10192271 72.83184373 -777.43789913 69.30540312 -749.91796875 66.70703125 C-749.23224792 66.64022156 -748.5465271 66.57341187 -747.84002686 66.50457764 C-703.99468372 62.23946644 -659.8332389 62.52994432 -615.91796875 65.70703125 C-614.77054199 65.78711426 -613.62311523 65.86719727 -612.44091797 65.94970703 C-600.60744228 66.79636768 -588.89579696 68.13950362 -577.16796875 69.92578125 C-573.04136788 70.55344139 -568.9081894 71.10993239 -564.76953125 71.65234375 C-557.58761934 72.60259923 -550.42571097 73.65641784 -543.26806641 74.77441406 C-541.31471182 75.07864481 -539.36048302 75.37724515 -537.40625 75.67578125 C-518.1614305 78.64771616 -499.23570184 82.63507726 -480.35546875 87.39453125 C-479.30792419 87.65747986 -478.26037964 87.92042847 -477.18109131 88.19134521 C-436.87172127 98.34324952 -397.82357268 112.44401746 -360.91796875 131.70703125 C-359.83370605 132.26874023 -359.83370605 132.26874023 -358.72753906 132.84179688 C-356.37190813 134.06308708 -354.01929825 135.28998087 -351.66796875 136.51953125 C-350.88341309 136.92929199 -350.09885742 137.33905273 -349.29052734 137.76123047 C-344.97899989 140.03216094 -340.72614818 142.37737416 -336.51171875 144.82421875 C-335.6187207 145.33621826 -334.72572266 145.84821777 -333.80566406 146.37573242 C-332.08738173 147.36512842 -330.37779366 148.36982978 -328.67871094 149.3918457 C-324.96238431 151.52142183 -322.67971411 152.70620146 -318.33203125 152.7109375 C-314.42400121 151.56177992 -310.73743643 150.15491247 -307.04296875 148.45703125 C-305.89489746 147.93629028 -305.89489746 147.93629028 -304.72363281 147.4050293 C-285.81273806 138.68051903 -267.70094716 128.51788846 -249.91796875 117.70703125 C-248.66983398 116.95196289 -248.66983398 116.95196289 -247.39648438 116.18164062 C-234.2917066 108.2522628 -221.37850478 100.10144305 -208.73046875 91.45703125 C-207.62156916 90.70066453 -206.51260015 89.94439956 -205.40356445 89.18823242 C-202.24000822 87.03030305 -199.07882076 84.86891992 -195.91796875 82.70703125 C-195.13131836 82.16965332 -194.34466797 81.63227539 -193.53417969 81.07861328 C-185.62519105 75.67370714 -177.76206186 70.20566285 -169.91796875 64.70703125 C-154.75866374 54.08619114 -139.49143037 43.7140265 -123.91796875 33.70703125 C-123.1089209 33.18431641 -122.29987305 32.66160156 -121.46630859 32.12304688 C-99.42546608 17.89623863 -76.75122814 5.36319595 -51.91796875 -3.29296875 C-50.90347656 -3.65261719 -49.88898438 -4.01226562 -48.84375 -4.3828125 C-33.29285424 -9.22040758 -13.59971481 -10.07114016 0 0 Z " fill="#FEFEFD" transform="translate(1789.91796875,444.29296875)"/>
<path d="M0 0 C9.80184066 4.20409483 18.67531181 9.30113197 27 16 C27.90878906 16.70640625 28.81757812 17.4128125 29.75390625 18.140625 C37.60817647 24.48957876 44.73918963 31.55549578 51.875 38.6875 C52.37318237 39.18468536 52.87136475 39.68187073 53.38464355 40.19412231 C58.58936296 45.40002101 63.69708834 50.65427999 68.48925781 56.24633789 C69.91718928 57.90387372 71.37995083 59.51652414 72.87109375 61.1171875 C73.71800781 62.02726562 74.56492187 62.93734375 75.4375 63.875 C76.30246094 64.80054688 77.16742187 65.72609375 78.05859375 66.6796875 C80 69 80 69 80 71 C80.66 71 81.32 71 82 71 C83.41015625 72.43359375 83.41015625 72.43359375 85.0625 74.4375 C88.38352343 78.35230309 91.91042168 81.95787178 95.59375 85.53125 C97.53736551 87.52534903 99.34881187 89.54560647 101.16040039 91.65600586 C104.89113661 95.93247903 108.8221763 99.96690512 112.83984375 103.97265625 C113.56563126 104.69940048 114.29141876 105.42614471 115.03919983 106.1749115 C116.56323556 107.69962296 118.08851569 109.2230915 119.61499023 110.74536133 C121.93132463 113.05633891 124.24227078 115.37260771 126.55273438 117.68945312 C128.04395034 119.1800082 129.53547653 120.670253 131.02734375 122.16015625 C131.70780258 122.84263931 132.38826141 123.52512238 133.08934021 124.22828674 C137.00609786 128.12626704 141.02368334 131.84937747 145.21405029 135.4521637 C147.98318741 137.85210303 150.64003176 140.36871745 153.3125 142.875 C159.0138396 148.17122701 164.88640988 153.18115337 171 158 C171.97066406 158.76570312 172.94132812 159.53140625 173.94140625 160.3203125 C188.11238408 171.35203742 202.62241737 181.71607787 218 191 C218.99257813 191.6084375 219.98515625 192.216875 221.0078125 192.84375 C225.25679984 195.43119303 229.50330999 197.86998894 234 200 C231.80567927 202.19432073 230.56385722 202.62472322 227.65234375 203.55859375 C226.74935547 203.85636719 225.84636719 204.15414062 224.91601562 204.4609375 C223.93310547 204.78320312 222.95019531 205.10546875 221.9375 205.4375 C204.62622805 211.29197702 187.78028343 218.48565246 171.890625 227.5390625 C169.09633884 228.95130983 167.12425116 229.86239024 164 230 C161.74609375 228.84765625 161.74609375 228.84765625 159.4375 227.0625 C158.56867188 226.41539062 157.69984375 225.76828125 156.8046875 225.1015625 C155.87914062 224.40804687 154.95359375 223.71453125 154 223 C148.18784097 218.95473731 142.2826944 215.04451915 136.1875 211.4375 C135.35605469 210.94121094 134.52460937 210.44492187 133.66796875 209.93359375 C129.98171355 208.64367429 127.75318584 208.96693664 124 210 C121.05655362 212.18242794 121.05655362 212.18242794 118.5 215.0625 C118.02498047 215.56273682 117.54996094 216.06297363 117.06054688 216.57836914 C113.90372922 219.92792447 110.84442219 223.36688355 107.8515625 226.86328125 C105.57239653 229.49345801 103.22886941 232.06190699 100.875 234.625 C100.41456299 235.12660645 99.95412598 235.62821289 99.47973633 236.14501953 C96.86754346 238.98491927 94.24426837 241.8142239 91.61328125 244.63671875 C91.04303223 245.2488623 90.4727832 245.86100586 89.88525391 246.49169922 C88.78864538 247.66778585 87.69075311 248.84267739 86.59130859 250.01611328 C82.94980684 253.91944487 79.44485624 257.92224263 76 262 C72.58559052 261.33812834 70.03082219 260.0005422 67.04296875 258.2421875 C66.09486328 257.69949219 65.14675781 257.15679688 64.16992188 256.59765625 C62.18701397 255.45232241 60.2103566 254.29609596 58.24023438 253.12890625 C54.10124169 250.78058135 51.02217385 249.07634494 46.234375 248.71875 C41.79060374 250.47908451 39.25013779 253.13877111 36.0625 256.625 C34.82865489 257.91841674 33.59299533 259.2101052 32.35546875 260.5 C31.77200684 261.11488281 31.18854492 261.72976563 30.58740234 262.36328125 C28.77277344 264.23428589 26.87178269 265.95054911 24.875 267.625 C17.29559497 274.06341933 10.34123206 281.30443287 3.90625 288.875 C1.37748221 291.69395426 -1.3066306 294.33919506 -4 297 C-13.69329041 305.56111507 -13.69329041 305.56111507 -19.43359375 316.453125 C-19.23435105 319.16274803 -19.23435105 319.16274803 -16.97265625 320.921875 C-16.01230469 321.52515625 -15.05195312 322.1284375 -14.0625 322.75 C-12.98484375 323.43191406 -11.9071875 324.11382813 -10.796875 324.81640625 C-8.06548997 326.43073988 -5.28234916 327.90444602 -2.453125 329.33984375 C-1.30058228 329.92717285 -1.30058228 329.92717285 -0.12475586 330.52636719 C1.39913473 331.29161095 2.93219497 332.03889872 4.47436523 332.76660156 C9.67743473 335.34876413 9.67743473 335.34876413 11.23828125 338.5 C10.90590644 341.98721115 9.58044034 342.99095253 7 345.3125 C4.04407508 348.0771324 1.19562551 350.79986301 -1.4375 353.875 C-4.27443478 357.18145079 -7.18414085 360.41047153 -10.125 363.625 C-13.51779188 367.34362403 -16.82998836 371.09031898 -20 375 C-25.8751486 374.34849837 -30.62394701 371.08738448 -35.67382812 368.23828125 C-41.49392852 365.01688326 -41.49392852 365.01688326 -48 364 C-50.01389378 365.22998921 -50.01389378 365.22998921 -51.5625 367.375 C-52.2328125 368.19742187 -52.903125 369.01984375 -53.59375 369.8671875 C-54.78484375 371.41792969 -54.78484375 371.41792969 -56 373 C-56.50015625 373.64485352 -57.0003125 374.28970703 -57.515625 374.95410156 C-60.88195487 379.29626634 -64.2089811 383.66698964 -67.52148438 388.05029297 C-70.31090755 391.72868357 -73.1529555 395.36613593 -76 399 C-92.93546528 377.94991098 -94.97756656 342.07160982 -92.78027344 316.43652344 C-90.40935195 295.02611075 -81.48516977 274.98710876 -66 260 C-64.59698276 258.87854064 -63.1827772 257.77067956 -61.75 256.6875 C-60.8425 255.800625 -59.935 254.91375 -59 254 C-59.28008136 249.05984162 -60.64658616 244.75654993 -62.3125 240.125 C-68.06343173 223.35388184 -70.29074968 206.60407464 -72 189 C-72.1340625 187.69804688 -72.268125 186.39609375 -72.40625 185.0546875 C-74.35828965 162.11822156 -73.08529786 138.87393882 -71 116 C-70.93055176 115.19884766 -70.86110352 114.39769531 -70.78955078 113.57226562 C-67.76844228 79.7174009 -60.31260502 27.07715927 -32.921875 3.1875 C-22.56210373 -4.79336083 -12.13166402 -4.65047121 0 0 Z " fill="#FDFEFD" transform="translate(590,343)"/>
<path d="M0 0 C1.32 0 2.64 0 4 0 C5.8080258 6.52292067 6.74950061 12.96619088 7.5 19.6875 C7.62745605 20.81454346 7.75491211 21.94158691 7.88623047 23.1027832 C9.33193354 36.37025369 10.27638782 49.6750499 11 63 C11.06565155 64.15278442 11.06565155 64.15278442 11.13262939 65.32885742 C12.05832156 81.9580677 12.15651122 98.57039253 12.13037109 115.21923828 C12.12462166 118.91550953 12.12800483 122.61170893 12.13394356 126.30797768 C12.13758692 129.21138027 12.13639429 132.11476627 12.13381577 135.0181694 C12.13284685 137.0302307 12.13582417 139.0422927 12.13894653 141.05435181 C12.12115288 148.08875787 11.8416336 155.02831346 11.24255371 162.0369873 C10.90111619 166.20795502 10.74512341 170.37686341 10.60546875 174.55859375 C10.53937608 176.32490306 10.47236207 178.09117808 10.40454102 179.85742188 C10.36966583 180.7667749 10.33479065 181.67612793 10.29885864 182.61303711 C9.53262367 202.04756132 7.99747777 221.27946035 5.7371521 240.59365845 C5.19590605 245.22394731 4.7029845 249.8561138 4.25 254.49609375 C2.66295728 270.65212141 0.26886108 286.59385458 -2.43310547 302.59228516 C-3.06203919 306.37292979 -3.64396836 310.15894927 -4.21459961 313.94873047 C-5.49734662 322.43376436 -7.14533882 330.80308005 -8.96875 339.1875 C-9.85198176 343.2583351 -10.66026896 347.34034408 -11.45019531 351.43017578 C-15.19608406 370.70386185 -20.4990693 389.07963396 -26.86669922 407.65429688 C-27.93136451 410.79737598 -28.96024618 413.94913207 -29.97265625 417.109375 C-36.70224456 438.03513255 -44.6089748 458.60034762 -55 478 C-55.50917969 478.96164062 -56.01835938 479.92328125 -56.54296875 480.9140625 C-58.00057238 483.62606497 -59.49288708 486.31521844 -61 489 C-61.61617187 490.10988281 -62.23234375 491.21976563 -62.8671875 492.36328125 C-70.09164535 505.28404889 -78.24991053 516.87563976 -88 528 C-88.74507812 528.85722656 -89.49015625 529.71445313 -90.2578125 530.59765625 C-91.83197116 532.4044335 -93.41348296 534.20409645 -95 536 C-85.46688784 536.37729205 -76.7551608 535.34573023 -67.4375 533.375 C-66.78558685 533.2402829 -66.13367371 533.1055658 -65.46200562 532.96676636 C-54.09222101 530.61434335 -42.98776228 527.75242886 -32 524 C-31.20062012 523.73074707 -30.40124023 523.46149414 -29.57763672 523.18408203 C-9.65020093 516.39900998 8.14438377 506.38921302 26.10546875 495.51953125 C27.05075439 494.95685547 27.05075439 494.95685547 28.01513672 494.3828125 C29.68907902 493.385996 31.35466308 492.37518042 33.01953125 491.36328125 C36.33617522 489.84623178 38.39655218 489.51070581 42 490 C45.2967643 493.73054908 46.2161362 496.1203097 46 501 C52.79937677 498.50993761 58.86346314 495.55798953 64.9375 491.625 C65.74598389 491.10679687 66.55446777 490.58859375 67.38745117 490.0546875 C81.7464022 480.73087352 95.22822491 470.38902862 108 459 C108.92425781 458.18660156 109.84851562 457.37320312 110.80078125 456.53515625 C118.05640383 450.09427733 124.91820666 443.40792557 131.234375 436.0390625 C132.41023318 434.68110239 133.60843127 433.34216619 134.828125 432.0234375 C141.17727969 425.1322818 146.60887748 417.64648124 152 410 C152.46921875 409.33919434 152.9384375 408.67838867 153.421875 407.99755859 C187.6598552 359.4271272 206.75158746 301.6856006 213.1875 242.875 C213.27404846 242.0841803 213.36059692 241.2933606 213.44976807 240.47857666 C215.75334217 218.69644846 215.5636088 196.87128887 215 175 C214.98302063 174.30318115 214.96604126 173.6063623 214.94854736 172.88842773 C214.1779192 143.28796471 209.2850622 112.92948386 203.25991821 83.97254944 C201.83322788 76.91730744 201.56424673 70.20203328 202 63 C206.57936432 64.85493238 207.62777479 67.39552869 209.6484375 71.734375 C216.94166043 89.35615063 221.29473823 108.15487141 224 127 C224.23653521 128.549547 224.47356142 130.09901909 224.7109375 131.6484375 C224.97480756 133.41133143 225.23782092 135.17435379 225.5 136.9375 C225.61875488 137.71681885 225.73750977 138.4961377 225.85986328 139.29907227 C226.27931761 142.19558988 226.64738347 145.09450643 227 148 C227.12757187 149.04858185 227.12757187 149.04858185 227.25772095 150.11834717 C228.90032753 164.0506724 229.28408845 177.84629382 229.20581055 191.8671875 C229.1874432 195.26049296 229.18530268 198.65352467 229.18554688 202.046875 C229.16104148 217.43654324 229.04582273 232.70722687 226.4621582 247.91601562 C226.00208942 250.98605726 225.77866338 253.99535438 225.60546875 257.09375 C225.11176024 263.822319 223.85616486 270.19235536 222.3125 276.75 C222.04630859 277.90886719 221.78011719 279.06773437 221.50585938 280.26171875 C220.95207527 282.6618842 220.39363549 285.06098016 219.83056641 287.45898438 C219.0351341 290.85021017 218.2564179 294.24489718 217.48046875 297.640625 C213.83558033 313.41154611 209.83854039 329.06067834 203.3359375 343.9296875 C202.32279875 346.25812919 201.35424259 348.58756101 200.4140625 350.9453125 C190.79676902 375.0120705 178.29961462 398.06680635 163 419 C162.52208008 419.6604834 162.04416016 420.3209668 161.55175781 421.00146484 C154.48685035 430.73725195 147.00693829 440.02439737 139 449 C138.48373047 449.57943359 137.96746094 450.15886719 137.43554688 450.75585938 C132.23715936 456.55975919 127.03042756 462.26830537 121.0390625 467.2734375 C118.55549371 469.37638272 116.19449194 471.59525678 113.8125 473.8125 C101.82690114 484.68468257 88.6521539 493.38592742 75 502 C73.94039062 502.68191406 72.88078125 503.36382813 71.7890625 504.06640625 C65.48348845 507.95996272 58.84142899 510.9743488 52.0625 513.9375 C51.14927979 514.34000977 50.23605957 514.74251953 49.29516602 515.15722656 C48.42561279 515.52686523 47.55605957 515.89650391 46.66015625 516.27734375 C45.88293213 516.60984131 45.10570801 516.94233887 44.30493164 517.28491211 C41.75990272 518.07448839 39.64928314 518.12914047 37 518 C34.40772482 513.13948404 34.81310447 508.34728867 35 503 C33.7625 503.8353125 33.7625 503.8353125 32.5 504.6875 C23.65849039 510.56496911 14.5793341 515.44465239 5 520 C3.51951051 520.71219647 2.03904208 521.42443672 0.55859375 522.13671875 C-24.19836419 533.98160748 -49.87174156 543.07924507 -77.5625 543.25 C-78.60325684 543.2593457 -79.64401367 543.26869141 -80.71630859 543.27832031 C-99.56131952 543.20114748 -99.56131952 543.20114748 -107 538 C-108.3125 535.8125 -108.3125 535.8125 -109 534 C-108.46632813 533.30777344 -107.93265625 532.61554687 -107.3828125 531.90234375 C-101.23076368 523.82378829 -95.49956884 515.53511312 -90 507 C-89.38632568 506.05519775 -89.38632568 506.05519775 -88.76025391 505.09130859 C-71.04573448 477.63066632 -56.45735687 447.95377634 -46 417 C-45.31783269 415.10224131 -44.63049434 413.20633186 -43.9375 411.3125 C-43.6178125 410.43078125 -43.298125 409.5490625 -42.96875 408.640625 C-42.3136951 406.85507212 -41.64667849 405.07386937 -40.96875 403.296875 C-38.77544678 397.48129828 -37.08840045 391.69149435 -35.65234375 385.64453125 C-35 383 -35 383 -33.9375 379.875 C-33.13901333 377.42630756 -32.6051124 375.14663385 -32.125 372.625 C-31.32458321 368.45794467 -30.36052161 364.36181244 -29.3125 360.25 C-24.6732265 341.97987138 -20.11947575 323.59801733 -17 305 C-17.62229492 305.34667725 -18.24458984 305.69335449 -18.88574219 306.05053711 C-31.94563275 313.29817729 -45.04223478 320.03963255 -58.73730469 325.99560547 C-61.54163302 327.24042709 -64.30038676 328.56801162 -67.06079102 329.90673828 C-87.40510035 339.74763727 -108.67098046 347.59409044 -130 355 C-130.969375 355.3412793 -131.93875 355.68255859 -132.9375 356.03417969 C-149.05578069 361.69399263 -165.39300081 366.25294096 -181.9407959 370.47412109 C-184.09166229 371.02340869 -186.24168045 371.5759311 -188.39160156 372.12890625 C-192.08663483 373.0782219 -195.78339007 374.02052172 -199.48168945 374.95703125 C-200.90077109 375.31652978 -202.3195588 375.67719074 -203.73803711 376.0390625 C-205.7121207 376.5414287 -207.68805628 377.03650033 -209.6640625 377.53125 C-211.35716553 377.95760742 -211.35716553 377.95760742 -213.08447266 378.39257812 C-216 379 -216 379 -220 379 C-220.33 373.06 -220.66 367.12 -221 361 C-218.61910156 360.35933594 -216.23820312 359.71867187 -213.78515625 359.05859375 C-183.60003273 350.92946436 -153.59751982 342.62236954 -123.95703125 332.66015625 C-120.89668741 331.63181964 -117.83306418 330.61607788 -114.76171875 329.62109375 C-114.10977539 329.408479 -113.45783203 329.19586426 -112.78613281 328.97680664 C-111.09668606 328.42682166 -109.40583535 327.88115418 -107.71484375 327.3359375 C-102.39168753 325.42161633 -97.20496881 323.21296185 -92 321 C-90.29855835 320.27683594 -90.29855835 320.27683594 -88.56274414 319.5390625 C-53.02901585 304.77775783 -53.02901585 304.77775783 -19.68359375 285.7734375 C-17 284 -17 284 -14 283 C-12.24532768 273.01233651 -10.8486438 262.98605762 -9.5 252.9375 C-9.38950317 252.11607513 -9.27900635 251.29465027 -9.16516113 250.44833374 C-6.32611984 229.55978131 -6.32611984 229.55978131 -4.63183594 208.55541992 C-4.58833008 207.71213135 -4.54482422 206.86884277 -4.5 206 C-4.46961639 205.3444664 -4.43923279 204.6889328 -4.40792847 204.01353455 C-4.18518396 199.53740899 -3.82472999 195.10914623 -3.30197144 190.65852356 C-1.88328471 178.56823317 -1.35530403 166.47007326 -0.875 154.3125 C-0.78830869 152.23109688 -0.70107193 150.14971641 -0.61328125 148.06835938 C-0.40259278 143.04581058 -0.19919138 138.02301735 0 133 C-0.50748779 133.24645264 -1.01497559 133.49290527 -1.5378418 133.74682617 C-17.10999121 141.28400682 -31.89476489 147.34558458 -48.875 150.75 C-50.34655328 151.05503058 -51.8179089 151.3610163 -53.2890625 151.66796875 C-63.03841109 153.68259733 -72.35410628 155.15916752 -82.3125 155.2734375 C-83.30670959 155.28596558 -84.30091919 155.29849365 -85.32525635 155.31140137 C-108.06752308 155.54211681 -129.76222346 155.16382826 -152 150 C-152.95003906 149.78601562 -153.90007812 149.57203125 -154.87890625 149.3515625 C-187.52597688 141.74174172 -227.92843519 125.55687985 -250.92578125 99.88671875 C-252.32119179 97.43587041 -252.30454094 95.77723156 -252 93 C-250.5 91.125 -250.5 91.125 -248 90 C-242.0040024 90.3366397 -237.74182226 91.73491131 -232.5 94.5625 C-231.08989438 95.29306649 -229.67973669 96.02353247 -228.26953125 96.75390625 C-227.203396 97.31489014 -227.203396 97.31489014 -226.11572266 97.88720703 C-203.05309991 110.01730563 -179.04348741 119.87609206 -153.75 126.3125 C-152.40578979 126.65788818 -152.40578979 126.65788818 -151.03442383 127.01025391 C-134.15402494 131.11405908 -117.65498859 132.58040793 -100.3125 132.5 C-98.78086716 132.49735641 -98.78086716 132.49735641 -97.21829224 132.49465942 C-63.4542585 132.36545151 -33.57321586 125.74267144 -2.80566406 111.71508789 C-1 111 -1 111 1 111 C0.96970703 109.84032715 0.93941406 108.6806543 0.90820312 107.48583984 C0.2304502 80.96754179 -0.09519754 54.46337844 -0.0625 27.9375 C-0.06164398 27.23806023 -0.06078796 26.53862045 -0.05990601 25.81798553 C-0.04858455 17.21196604 -0.02861156 8.60597963 0 0 Z " fill="#050606" transform="translate(1416,1300)"/>
<path d="M0 0 C4.05885418 1.40414415 6.95512415 3.3406924 10.3125 6 C16.89864331 11.09411653 23.89595793 15.4059862 30.98632812 19.75488281 C34.22381032 21.75672074 37.42571756 23.81283789 40.625 25.875 C41.71039062 26.57367187 42.79578125 27.27234375 43.9140625 27.9921875 C46.95821254 29.9728117 49.9824307 31.97922536 53 34 C51.34643078 37.58273331 49.32019297 40.80973467 47 44 C46.34 44 45.68 44 45 44 C44.75507812 44.56460938 44.51015625 45.12921875 44.2578125 45.7109375 C42.773105 48.41292072 40.98033665 50.37295 38.875 52.625 C35.14403352 56.69406678 31.65963201 60.86960466 28.2578125 65.21484375 C26.50141054 67.381478 24.71477567 69.47943877 22.8671875 71.56640625 C22.32167236 72.18612305 21.77615723 72.80583984 21.21411133 73.44433594 C20.13330218 74.66685649 19.0448508 75.88267341 17.94799805 77.09082031 C15.11815665 80.30265131 13.32509402 82.55704846 13 87 C14.20670415 87.91881027 15.41546424 88.83492051 16.625 89.75 C17.29789063 90.26046875 17.97078125 90.7709375 18.6640625 91.296875 C24.53759801 95.57925206 30.73987652 99.27834123 36.9765625 103 C39.74866085 104.83373948 41.97310822 106.36606957 44 109 C43.66569746 112.74770745 41.84188276 114.4983913 39.2109375 117.046875 C38.43363281 117.81 37.65632812 118.573125 36.85546875 119.359375 C36.03691406 120.14828125 35.21835937 120.9371875 34.375 121.75 C29.29541267 126.68963112 24.3667109 131.63656622 19.75537109 137.01757812 C16.55004327 140.63750329 13.07410182 143.98941755 9.625 147.375 C8.19824009 148.77632747 6.77364493 150.1798635 5.3515625 151.5859375 C4.73104004 152.1948584 4.11051758 152.8037793 3.47119141 153.43115234 C1.90538038 154.95123461 1.90538038 154.95123461 1 157 C0.34 157 -0.32 157 -1 157 C-1 157.66 -1 158.32 -1 159 C-6.70111758 158.44827894 -11.18468235 156.23815603 -16.25 153.75 C-17.09320801 153.34394531 -17.93641602 152.93789063 -18.80517578 152.51953125 C-23.90955341 150.05351512 -28.98575193 147.53524621 -33.9921875 144.875 C-36.29974466 143.86937198 -38.52348247 143.41419109 -41 143 C-41.26683594 143.59683594 -41.53367187 144.19367188 -41.80859375 144.80859375 C-43.02486932 147.04574324 -44.20357259 148.34420067 -46.0625 150.0625 C-51.69457366 155.53098646 -56.46538246 161.7449261 -61.28125 167.9296875 C-61.9928125 168.83976563 -62.704375 169.74984375 -63.4375 170.6875 C-64.07558594 171.51636719 -64.71367188 172.34523438 -65.37109375 173.19921875 C-65.90863281 173.79347656 -66.44617188 174.38773438 -67 175 C-67.66 175 -68.32 175 -69 175 C-69.23460937 175.54140625 -69.46921875 176.0828125 -69.7109375 176.640625 C-71.3583644 179.65591544 -73.42653344 182.11184012 -75.625 184.75 C-76.44226563 185.73484375 -77.25953125 186.7196875 -78.1015625 187.734375 C-78.72804688 188.48203125 -79.35453125 189.2296875 -80 190 C-84.56736293 189.42152492 -88.03597429 187.48391133 -91.9375 185.1875 C-93.35463016 184.3722385 -94.77265124 183.55852432 -96.19140625 182.74609375 C-97.34020264 182.08649658 -97.34020264 182.08649658 -98.51220703 181.41357422 C-103.10333216 178.804878 -107.7395778 176.27887641 -112.375 173.75 C-113.72839478 173.00786255 -113.72839478 173.00786255 -115.10913086 172.25073242 C-126.318365 166.1297249 -126.318365 166.1297249 -138 161 C-134.73852011 155.73145557 -131.39583802 151.20806248 -126.9140625 146.93359375 C-122.12815778 142.09885327 -118.03678205 136.57797369 -113.82421875 131.24609375 C-110.39310646 126.91035675 -106.96512663 122.84850526 -103 119 C-100.76301655 116.31528408 -100.76301655 116.31528408 -101.1628418 113.96044922 C-102.19917301 111.53357851 -103.11952707 110.93090483 -105.39453125 109.6328125 C-106.09771484 109.22498535 -106.80089844 108.8171582 -107.52539062 108.39697266 C-108.28013672 107.97722168 -109.03488281 107.5574707 -109.8125 107.125 C-110.57626953 106.68591309 -111.34003906 106.24682617 -112.12695312 105.79443359 C-117.58542053 102.68887219 -123.13157429 99.89552552 -128.875 97.3515625 C-131 96 -131 96 -131.6328125 93.91552734 C-131.75398437 93.28340332 -131.87515625 92.6512793 -132 92 C-131.57702637 91.61255615 -131.15405273 91.2251123 -130.71826172 90.82592773 C-128.76667488 89.03390963 -126.8208368 87.23575929 -124.875 85.4375 C-124.20984375 84.82841797 -123.5446875 84.21933594 -122.859375 83.59179688 C-119.00687408 80.02256808 -115.49893197 76.38519281 -112.23095703 72.26977539 C-111.82474121 71.85074951 -111.41852539 71.43172363 -111 71 C-110.34 71 -109.68 71 -109 71 C-108.75467529 70.42797852 -108.50935059 69.85595703 -108.2565918 69.26660156 C-106.78524527 66.61263203 -105.06447599 64.85500817 -102.89453125 62.734375 C-101.66573242 61.52201172 -101.66573242 61.52201172 -100.41210938 60.28515625 C-99.55423828 59.44855469 -98.69636719 58.61195313 -97.8125 57.75 C-92.43805572 52.487093 -87.19817688 47.2753695 -82.47924805 41.40722656 C-81 40 -81 40 -78 40 C-78 40.66 -78 41.32 -78 42 C-77.15091064 42.1700354 -77.15091064 42.1700354 -76.28466797 42.34350586 C-73.72192209 43.07990506 -71.74594224 44.15794503 -69.4453125 45.50390625 C-68.15173828 46.24350586 -68.15173828 46.24350586 -66.83203125 46.99804688 C-65.03149686 48.03861545 -63.23458275 49.08547433 -61.44140625 50.13867188 C-55.12983881 53.93326578 -55.12983881 53.93326578 -48 54 C-45.8138221 52.36079557 -45.8138221 52.36079557 -44 49.9375 C-42.85917969 48.57818359 -42.85917969 48.57818359 -41.6953125 47.19140625 C-41.27411133 46.68496582 -40.85291016 46.17852539 -40.41894531 45.65673828 C-37.68229334 42.46146638 -34.76249899 39.43338169 -31.875 36.375 C-27.71710692 31.94006035 -23.59630925 27.48970775 -19.6328125 22.87890625 C-17.64638535 20.59308937 -15.60300679 18.36264049 -13.5625 16.125 C-9.70752884 11.86006621 -6.08405663 7.45214345 -2.53125 2.93359375 C-1 1 -1 1 0 0 Z " fill="#FDFDFC" transform="translate(718,563)"/>
<path d="M0 0 C3.85490677 0.31318239 5.45048764 1.2859297 8.58203125 3.515625 C9.62230469 4.24265625 10.66257812 4.9696875 11.734375 5.71875 C12.91399027 6.56599865 14.09229859 7.41506889 15.26953125 8.265625 C24.72596746 15.06774542 34.05326647 21.62934372 44.31005859 27.18798828 C46.51825722 28.40241499 48.69991334 29.65865543 50.8828125 30.91796875 C62.32121956 37.45888394 73.84579002 42.87228852 86.26953125 47.265625 C87.58896729 47.73742188 87.58896729 47.73742188 88.93505859 48.21875 C119.60529234 58.96131168 154.16442112 61.85385993 186.26953125 56.265625 C186.96127441 56.14735352 187.65301758 56.02908203 188.36572266 55.90722656 C207.34511993 52.50676924 226.16645465 46.15617151 243.26953125 37.265625 C243.98254395 36.89759766 244.69555664 36.52957031 245.43017578 36.15039062 C251.70415886 32.89990057 257.96518684 29.63757206 264.04296875 26.03125 C267.87824926 23.93252507 269.96328121 23.54791666 274.26953125 24.265625 C277.84466277 27.21899452 280.01317459 29.38567619 280.64453125 34.015625 C280.07090272 38.9870723 277.08940031 41.78657948 273.33496094 44.83789062 C271.07653368 46.49550845 268.7833775 48.07976089 266.45703125 49.640625 C265.19451538 50.49261475 265.19451538 50.49261475 263.90649414 51.36181641 C238.98449198 67.87625464 210.38989939 75.87958424 181.26953125 81.265625 C180.26768799 81.45543945 179.26584473 81.64525391 178.23364258 81.84082031 C169.30386046 83.38948958 160.49058281 83.66383519 151.45703125 83.640625 C150.69318115 83.64041351 149.92933105 83.64020203 149.14233398 83.63998413 C135.53468892 83.60259465 122.56183239 82.29952044 109.26953125 79.265625 C108.01946289 78.99274658 108.01946289 78.99274658 106.74414062 78.71435547 C67.30744015 69.95151436 22.56212758 46.50248021 -0.23046875 12.078125 C-2.39538317 8.51407705 -3.30695437 5.42430097 -3.73046875 1.265625 C-2.73046875 0.265625 -2.73046875 0.265625 0 0 Z " fill="#040504" transform="translate(681.73046875,1343.734375)"/>
<path d="M0 0 C4.21234044 1.51171844 7.78193 3.61688287 11.5625 6 C16.6611147 9.21644588 16.6611147 9.21644588 22 12 C21.47064416 16.13860017 19.2542705 18.1749167 16.4375 21.125 C10.86223146 27.0682961 5.84299791 33.35788917 0.83203125 39.77734375 C0.12433594 40.67582031 -0.58335937 41.57429687 -1.3125 42.5 C-1.94800781 43.3146875 -2.58351563 44.129375 -3.23828125 44.96875 C-5 47 -5 47 -8 49 C-11.5708719 38.2873843 -10.57546002 21.81239173 -6.22265625 11.390625 C-5.81917969 10.60171875 -5.41570312 9.8128125 -5 9 C-4.54496094 8.10796875 -4.08992188 7.2159375 -3.62109375 6.296875 C-2.46910025 4.15698963 -1.2745193 2.06848214 0 0 Z " fill="#F7F7F6" transform="translate(505,762)"/>
</svg>
